<?xml version="1.0" encoding="UTF-8"?>
<svg version="1.1" xmlns="http://www.w3.org/2000/svg" width="500" height="500">
<path d="M0 0 C1.22589844 -0.09087891 1.22589844 -0.09087891 2.4765625 -0.18359375 C12.77093699 2.02234364 21.4014486 14.41707685 28.40429688 21.73413086 C30.11794735 23.51997241 31.846637 25.29006646 33.578125 27.05859375 C34.10110168 27.61365097 34.62407837 28.16870819 35.16290283 28.74058533 C37.88716158 31.65123319 37.88716158 31.65123319 41.61230469 32.46118164 C44.70010429 30.66794844 45.38788127 28.39112743 46.3125 25.0625 C48.27283218 18.37430786 51.78924947 14.44908447 57.375 10.4375 C62.14307106 8.84814298 66.87954026 8.38240211 71.6015625 10.37890625 C77.03907676 13.62715915 80.82420452 17.59012563 83.375 23.4375 C84.25506579 28.88162792 83.54564552 33.77807101 80.83203125 38.58203125 C76.07635926 44.6381819 69.6400638 46.90801288 62.375 48.4375 C61.385 49.4275 61.385 49.4275 60.375 50.4375 C60.88349864 55.11478384 64.2276717 57.61284466 67.45703125 60.70703125 C68.06761887 61.306259 68.67820648 61.90548676 69.30729675 62.52287292 C71.91551036 65.08216576 74.54092642 67.62353956 77.1652832 70.16625977 C79.08131258 72.02770277 80.98803209 73.89833618 82.89453125 75.76953125 C83.48321487 76.33331985 84.0718985 76.89710846 84.67842102 77.47798157 C89.11287064 81.83354451 93.07062482 86.27199814 93.6875 92.6875 C93.375 95.4375 93.375 95.4375 92.375 98.4375 C92.931875 98.30730469 93.48875 98.17710937 94.0625 98.04296875 C94.825625 97.90503906 95.58875 97.76710938 96.375 97.625 C97.1175 97.47417969 97.86 97.32335937 98.625 97.16796875 C105.80625258 97.87181311 111.4124883 104.09399004 116.140625 109.0859375 C117.37216122 110.35048895 118.60393886 111.61480531 119.8359375 112.87890625 C121.74498361 114.8566622 123.64971837 116.8383408 125.54980469 118.82470703 C127.40275826 120.75577439 129.27058266 122.67143646 131.140625 124.5859375 C131.70734924 125.18787933 132.27407349 125.78982117 132.85797119 126.41000366 C134.61720907 128.26143057 134.61720907 128.26143057 137.375 130.4375 C139.49549146 130.36615604 139.49549146 130.36615604 141.375 129.4375 C142.78889614 126.64015838 142.78889614 126.64015838 143.8125 123.25 C146.21181334 116.57142354 148.16401741 112.62680631 154.125 108.5625 C159.72723901 106.62326342 164.39750015 106.86771191 170.0625 108.5 C174.60447646 111.15662774 178.00867534 114.70485068 180.375 119.4375 C180.87678565 125.88351568 181.33729274 132.02236659 177.375 137.4375 C172.45496158 142.35753842 167.89545034 144.48858994 161.1796875 145.6796875 C158.73478524 146.70633477 158.44223667 148.08863954 157.375 150.4375 C158.26807861 151.3253418 159.16115723 152.21318359 160.08129883 153.12792969 C163.39927688 156.42778505 166.71392589 159.73096727 170.02758789 163.03515625 C171.4612539 164.46379868 172.89581685 165.89154162 174.33129883 167.31835938 C176.39641937 169.37132795 178.45827529 171.42752716 180.51953125 173.484375 C181.16026077 174.11994324 181.8009903 174.75551147 182.46113586 175.41033936 C190.81376749 183.76192021 190.81376749 183.76192021 191 189.6875 C191.05414063 190.57953125 191.10828125 191.4715625 191.1640625 192.390625 C189.917886 197.20259366 186.78435034 199.92224728 183.375 203.4375 C182.39703867 204.46738098 181.41970619 205.49785933 180.44287109 206.52880859 C177.66158943 209.44928951 174.84524088 212.33314102 172.01318359 215.2043457 C170.82789907 216.41145837 169.64893489 217.62480661 168.47607422 218.84399414 C166.76647676 220.62018391 165.0382706 222.37615856 163.3046875 224.12890625 C162.78373505 224.67768936 162.26278259 225.22647247 161.7260437 225.79188538 C160.21826172 227.29125977 160.21826172 227.29125977 157.375 229.4375 C154.57861328 229.36694336 154.57861328 229.36694336 152.375 228.4375 C150.50491659 225.97686393 150.18573051 223.59930656 149.5 220.5625 C148.34396149 215.85076727 146.6968885 212.13284716 142.65234375 209.1796875 C137.6528437 206.33702942 133.05411488 205.59144937 127.375 206.4375 C121.93310201 208.251466 118.5966675 211.82012638 115.375 216.4375 C113.78564298 221.20557106 113.31990211 225.94204026 115.31640625 230.6640625 C118.9432043 236.73525423 122.64297585 240.04938065 129.5 242 C130.34820312 242.20753906 131.19640625 242.41507813 132.0703125 242.62890625 C134.61672158 243.5223074 135.85192065 244.20540095 137.375 246.4375 C136.94541358 249.74973724 135.78439468 251.40025583 133.44750977 253.72143555 C132.83339737 254.33854904 132.21928497 254.95566254 131.58656311 255.59147644 C130.91991135 256.2457814 130.25325958 256.90008636 129.56640625 257.57421875 C128.88448715 258.25426468 128.20256805 258.93431061 127.49998474 259.63496399 C126.05841633 261.06981415 124.61325667 262.50106396 123.16479492 263.92895508 C120.94253795 266.12003274 118.73115181 268.32162416 116.52148438 270.52539062 C115.12041329 271.91729267 113.71874083 273.30858968 112.31640625 274.69921875 C111.65177872 275.35959641 110.98715118 276.01997406 110.30238342 276.70036316 C109.37648659 277.61184868 109.37648659 277.61184868 108.43188477 278.54174805 C107.6170034 279.34638741 107.6170034 279.34638741 106.78565979 280.1672821 C104.24247226 282.45727601 102.08963482 282.73071147 98.75 282.9375 C97.93273437 283.0096875 97.11546875 283.081875 96.2734375 283.15625 C86.83596413 280.81596011 78.10660605 268.27841465 71.375 261.5 C70.1109115 260.23088627 68.84659044 258.96200411 67.58203125 257.69335938 C64.51033276 254.6107368 61.44179992 251.52499572 58.375 248.4375 C62.25855867 253.09036571 66.29537286 257.487396 70.61328125 261.73828125 C71.17951706 262.30073044 71.74575287 262.86317963 72.32914734 263.44267273 C74.11282086 265.21426744 75.89973677 266.98253304 77.6875 268.75 C80.06145406 271.09739764 82.43209467 273.44806988 84.80078125 275.80078125 C85.61788322 276.60543571 85.61788322 276.60543571 86.45149231 277.42634583 C90.20161495 281.15174776 91.59635568 283.17517411 92 288.4375 C91.89180689 293.3368654 90.99387658 295.50318713 87.60546875 299.01953125 C86.78820312 299.87885254 85.9709375 300.73817383 85.12890625 301.62353516 C84.22011719 302.55214355 83.31132812 303.48075195 82.375 304.4375 C81.3985515 305.45898932 80.42332351 306.48164651 79.44921875 307.50537109 C76.87872768 310.19591143 74.2780982 312.85470089 71.66186523 315.50073242 C70.58135654 316.59806479 69.5062757 317.70076438 68.4362793 318.80834961 C66.86909597 320.42992439 65.28641676 322.03475964 63.69921875 323.63671875 C63.22312668 324.13548019 62.74703461 324.63424164 62.2565155 325.14811707 C60.8894043 326.5065918 60.8894043 326.5065918 58.375 328.4375 C56.13989258 328.36254883 56.13989258 328.36254883 54.375 327.4375 C52.06804922 324.484603 51.05537758 321.47507849 50 317.9375 C48.24529523 312.46427578 45.39659852 309.76991721 40.625 306.625 C35.26403866 304.6661872 30.59394218 304.69785261 25.1875 306.5 C20.71873545 309.57848225 17.10775169 313.23924494 15.375 318.4375 C14.53449644 324.52514719 15.38649456 328.70116787 18.96484375 333.71484375 C22.95922687 338.59440873 26.23898646 339.7133548 32.21484375 340.80078125 C35.63933919 341.81017141 37.15219275 343.71276854 39.375 346.4375 C35.42574799 351.16473581 31.31590556 355.64536658 26.953125 359.9921875 C26.36706482 360.57920441 25.78100464 361.16622131 25.17718506 361.77102661 C23.95154453 362.9973418 22.72466378 364.22241862 21.49658203 365.44628906 C19.61242939 367.32503454 17.73373922 369.20912576 15.85546875 371.09375 C14.65917509 372.28938369 13.46257173 373.4847076 12.265625 374.6796875 C11.70417786 375.24315887 11.14273071 375.80663025 10.56427002 376.38717651 C6.88338642 380.04579183 4.92018543 381.61736468 -0.25 381.9375 C-1.06726563 382.0096875 -1.88453125 382.081875 -2.7265625 382.15625 C-12.16403587 379.81596011 -20.89339395 367.27841465 -27.625 360.5 C-28.8890885 359.23088627 -30.15340956 357.96200411 -31.41796875 356.69335938 C-34.48966724 353.6107368 -37.55820008 350.52499572 -40.625 347.4375 C-37.90869141 342.56298828 -37.90869141 342.56298828 -35.35546875 341.43359375 C-34.51628906 341.24925781 -33.67710937 341.06492187 -32.8125 340.875 C-26.74182937 339.29981141 -21.99436245 336.93488084 -18.625 331.4375 C-16.74889068 325.80917204 -16.08923177 318.57280538 -18.75390625 313.1328125 C-22.30188739 308.81594772 -26.32552444 305.93186587 -31.9453125 305.08984375 C-37.50524326 304.75828825 -41.39867994 305.63144615 -45.94140625 308.89453125 C-50.56241287 313.12956052 -52.20561034 318.68064474 -53.9140625 324.51953125 C-54.625 326.4375 -54.625 326.4375 -56.625 328.4375 C-59.93830573 328.10607199 -61.60816716 326.82634524 -63.90893555 324.51000977 C-64.52604904 323.89589737 -65.14316254 323.28178497 -65.77897644 322.64906311 C-66.4332814 321.98241135 -67.08758636 321.31575958 -67.76171875 320.62890625 C-68.44176468 319.94698715 -69.12181061 319.26506805 -69.82246399 318.56248474 C-71.25731415 317.12091633 -72.68856396 315.67575667 -74.11645508 314.22729492 C-76.30753274 312.00503795 -78.50912416 309.79365181 -80.71289062 307.58398438 C-82.10479267 306.18291329 -83.49608968 304.78124083 -84.88671875 303.37890625 C-85.54709641 302.71427872 -86.20747406 302.04965118 -86.88786316 301.36488342 C-87.79934868 300.43898659 -87.79934868 300.43898659 -88.72924805 299.49438477 C-89.53388741 298.6795034 -89.53388741 298.6795034 -90.3547821 297.84815979 C-92.97216199 294.94138877 -92.73160015 292.60511301 -92.6875 288.8125 C-92.67847656 287.80960937 -92.66945313 286.80671875 -92.66015625 285.7734375 C-92.64855469 285.00257813 -92.63695312 284.23171875 -92.625 283.4375 C-93.32625 283.51871094 -94.0275 283.59992188 -94.75 283.68359375 C-96.173125 283.77833984 -96.173125 283.77833984 -97.625 283.875 C-98.553125 283.95621094 -99.48125 284.03742188 -100.4375 284.12109375 C-105.43078757 283.05022938 -108.05129572 279.96525054 -111.625 276.4375 C-112.37595947 275.70142014 -112.37595947 275.70142014 -113.14208984 274.95046997 C-117.33687651 270.83376948 -121.48355501 266.67024276 -125.625 262.5 C-126.8890885 261.23088627 -128.15340956 259.96200411 -129.41796875 258.69335938 C-132.48966724 255.6107368 -135.55820008 252.52499572 -138.625 249.4375 C-137.25516497 246.27634224 -136.6359362 245.4447908 -133.625 243.4375 C-132.1987111 243.09519067 -130.75872152 242.80728361 -129.3125 242.5625 C-124.31455583 241.49151196 -120.49233084 240.00289845 -117.37109375 235.71484375 C-114.54643543 230.76431018 -113.62214233 226.06971076 -114.625 220.4375 C-116.68948974 214.82915355 -120.39448146 211.27589818 -125.51953125 208.359375 C-129.97625521 206.40800793 -134.5206129 206.71474724 -139.0703125 208.27734375 C-144.07617637 210.73071268 -146.76613124 213.24519892 -148.9375 218.3828125 C-149.57506469 220.28826151 -150.0751769 222.2382076 -150.5625 224.1875 C-151.83057595 228.06632055 -153.41078065 229.06424013 -156.625 231.4375 C-161.15270811 226.96051253 -165.67254835 222.47569406 -170.18701172 217.98535156 C-171.72362221 216.458797 -173.26202317 214.93404252 -174.80224609 213.41113281 C-177.01613252 211.22151207 -179.223494 209.02549335 -181.4296875 206.828125 C-182.11932587 206.1488092 -182.80896423 205.46949341 -183.51950073 204.76959229 C-184.16001373 204.12923035 -184.80052673 203.48886841 -185.46044922 202.82910156 C-186.02448456 202.26950745 -186.5885199 201.70991333 -187.16964722 201.13336182 C-190.40163085 197.36726627 -191.30664405 193.77888303 -191.08203125 188.89355469 C-189.3646022 179.6642084 -174.9180447 169.79347439 -168.2734375 163.40820312 C-166.49382555 161.69485332 -164.73027596 159.96628752 -162.96875 158.234375 C-162.41682983 157.71139832 -161.86490967 157.18842163 -161.29626465 156.64959717 C-159.59755012 155.02113819 -159.59755012 155.02113819 -157.625 152.4375 C-157.52002405 150.15689426 -157.52002405 150.15689426 -158.625 148.4375 C-161.13913183 146.62732508 -163.36930578 146.29107919 -166.4375 145.6875 C-171.24441144 144.53061273 -174.40006294 142.14020551 -177.625 138.4375 C-180.65113195 133.26379053 -181.67828838 128.32173606 -180.625 122.4375 C-178.50321189 116.96603715 -174.97466107 113.1248117 -169.86328125 110.28515625 C-164.99369694 108.44100303 -160.2769665 108.58085103 -155.3515625 110.171875 C-149.67307571 112.74724819 -145.95676927 116.60807682 -143.625 122.4375 C-143.18056566 124.49918154 -142.75114765 126.55602921 -142.3828125 128.6328125 C-141.35616523 131.07771476 -139.97386046 131.37026333 -137.625 132.4375 C-137.23298401 132.04104279 -136.84096802 131.64458557 -136.43707275 131.2361145 C-132.35506853 127.1098547 -128.26603447 122.99065864 -124.17285156 118.87548828 C-122.646297 117.33887779 -121.12154252 115.80047683 -119.59863281 114.26025391 C-117.40901207 112.04636748 -115.21299335 109.839006 -113.015625 107.6328125 C-112.3363092 106.94317413 -111.65699341 106.25353577 -110.95709229 105.54299927 C-110.31673035 104.90248627 -109.67636841 104.26197327 -109.01660156 103.60205078 C-108.45700745 103.03801544 -107.89741333 102.4739801 -107.32086182 101.89285278 C-104.26540133 99.27072115 -101.53258469 98.04911478 -97.5 98.25 C-93.30565216 98.91652977 -91.19331618 100.34397605 -88.109375 103.2265625 C-87.23974121 104.03810791 -86.37010742 104.84965332 -85.47412109 105.68579102 C-80.25284946 110.72854616 -75.11216229 115.84692189 -70 121 C-68.88956039 122.11547083 -67.77888462 123.23070661 -66.66796875 124.34570312 C-63.98425841 127.04027631 -61.30373064 129.73797673 -58.625 132.4375 C-62.50855867 127.78463429 -66.54537286 123.387604 -70.86328125 119.13671875 C-71.42951706 118.57426956 -71.99575287 118.01182037 -72.57914734 117.43232727 C-74.36282086 115.66073256 -76.14973677 113.89246696 -77.9375 112.125 C-80.31145406 109.77760236 -82.68209467 107.42693012 -85.05078125 105.07421875 C-85.5955159 104.53778244 -86.14025055 104.00134613 -86.70149231 103.44865417 C-90.3298995 99.84416533 -91.80947147 97.90828574 -92.125 92.8125 C-92.1971875 91.99523437 -92.269375 91.17796875 -92.34375 90.3359375 C-89.91408215 80.53803782 -76.47402104 71.30344281 -69.34887695 64.40820312 C-67.57899368 62.69258458 -65.82189204 60.96470604 -64.06640625 59.234375 C-63.51964737 58.71139832 -62.97288849 58.18842163 -62.40956116 57.64959717 C-60.70947133 56.00702472 -60.70947133 56.00702472 -58.625 53.4375 C-58.625 52.1175 -58.625 50.7975 -58.625 49.4375 C-61.61129283 48.13099689 -64.20536876 47.33284334 -67.4375 46.75 C-72.63410162 45.49768803 -76.14159616 42.38757996 -79.625 38.4375 C-82.03008 33.82776333 -82.59838991 28.54779702 -81.625 23.4375 C-79.22676847 18.50866701 -76.28491389 14.40775045 -71.625 11.4375 C-65.96629242 9.53269883 -59.84224935 9.57701449 -54.375 12 C-49.37867901 14.85078355 -46.53531726 18.57343578 -44.796875 24.04296875 C-44.32417222 25.78543166 -43.88746356 27.53826754 -43.49609375 29.30078125 C-42.38665638 32.0221366 -41.23234553 32.27631675 -38.625 33.4375 C-38.22854279 33.03882217 -37.83208557 32.64014435 -37.4236145 32.22938538 C-33.30641389 28.09010556 -29.18573253 23.95431485 -25.06298828 19.82055664 C-23.52367553 18.27620708 -21.9852604 16.73096229 -20.44775391 15.18481445 C-18.24094799 12.9659145 -16.03096143 10.75022667 -13.8203125 8.53515625 C-13.13067413 7.8403566 -12.44103577 7.14555695 -11.73049927 6.42970276 C-10.76972977 5.46881996 -10.76972977 5.46881996 -9.78955078 4.48852539 C-9.22551544 3.92226944 -8.6614801 3.35601349 -8.08035278 2.77259827 C-5.50895607 0.41367379 -3.40362207 0.17386924 0 0 Z " fill="#F2C6FE" transform="translate(249.625,62.5625)"/>
<path d="M0 0 C2.21972656 1.64306641 2.21972656 1.64306641 4.515625 3.7890625 C5.38525879 4.60060791 6.25489258 5.41215332 7.15087891 6.24829102 C12.37215054 11.29104616 17.51283771 16.40942189 22.625 21.5625 C23.73543961 22.67797083 24.84611538 23.79320661 25.95703125 24.90820312 C28.64074159 27.60277631 31.32126936 30.30047673 34 33 C37.42751425 29.70695188 39.50261014 27.69359935 40.5 23 C41.70847666 18.40505766 43.22287997 16.040121 47 13 C47.57105469 12.47148437 48.14210937 11.94296875 48.73046875 11.3984375 C53.48116582 8.47115772 59.6319476 9.44382228 65 10 C69.93852217 12.25265923 72.80894426 15.71486801 76 20 C77.73626221 25.20878663 78.10420263 30.37599079 75.94140625 35.515625 C71.72904395 42.41065705 66.71021041 45.02763413 59.125 47.125 C55.92850357 47.7446556 55.92850357 47.7446556 54 50 C54.33418519 53.25867304 55.5346936 54.89920102 57.83569336 57.14453125 C58.429785 57.73194092 59.02387665 58.31935059 59.63597107 58.92456055 C60.28074905 59.54758057 60.92552704 60.17060059 61.58984375 60.8125 C62.2495668 61.46323486 62.90928986 62.11396973 63.58900452 62.78442383 C65.69816504 64.86355611 67.81691803 66.93252269 69.9375 69 C72.05364345 71.06830606 74.16746823 73.13878237 76.27528381 75.21557617 C77.58681394 76.50736442 78.90325263 77.79419232 80.2250824 79.07543945 C80.8223262 79.66284912 81.41957001 80.25025879 82.03491211 80.85546875 C82.56040146 81.36746826 83.08589081 81.87946777 83.62730408 82.40698242 C87.09091051 86.42650767 87.28550456 89.76574969 87 95 C86.67 95.99 86.34 96.98 86 98 C86.66 97.67 87.32 97.34 88 97 C94.14556119 96.4878699 97.07579788 97.19995837 102 101 C104.3624235 103.16297539 106.574004 105.45696669 108.7890625 107.76953125 C110.07249631 109.08309314 111.3563631 110.39623209 112.640625 111.70898438 C114.64494227 113.76933366 116.64507043 115.83336652 118.63769531 117.9050293 C120.57300251 119.91256712 122.52340888 121.90437426 124.4765625 123.89453125 C125.07143463 124.52148392 125.66630676 125.14843658 126.27920532 125.79438782 C128.12591405 127.72260544 128.12591405 127.72260544 131 130 C133.12836746 129.93605655 133.12836746 129.93605655 135 129 C136.37797768 126.23488296 136.37797768 126.23488296 137.375 122.875 C139.91427828 115.79297617 142.60963488 111.38866634 148.75 107.0625 C154.37597516 105.22323889 159.62402484 105.22323889 165.25 107.0625 C170.14625301 110.5121328 174.51497126 115.05988503 176 121 C176.67420492 126.95547675 175.3670758 131.16044206 172 136 C166.91187602 141.34784261 162.01519806 143.96334223 154.8046875 145.2421875 C152.35978524 146.26883477 152.06723667 147.65113954 151 150 C151.39867783 150.39645721 151.79735565 150.79291443 152.20811462 151.2013855 C156.34739444 155.31858611 160.48318515 159.43926747 164.61694336 163.56201172 C166.16129292 165.10132447 167.70653771 166.6397396 169.25268555 168.17724609 C171.4715855 170.38405201 173.68727333 172.59403857 175.90234375 174.8046875 C176.5971434 175.49432587 177.29194305 176.18396423 178.00779724 176.89450073 C178.96868004 177.85527023 178.96868004 177.85527023 179.94897461 178.83544922 C180.51523056 179.39948456 181.08148651 179.9635199 181.66490173 180.54464722 C184.71227457 183.86650199 184.65706057 187.54818428 184.5612793 191.88549805 C183.89202983 195.59911938 182.82779098 196.88664179 180.23046875 199.58203125 C179.41320312 200.44135254 178.5959375 201.30067383 177.75390625 202.18603516 C176.84511719 203.11464355 175.93632812 204.04325195 175 205 C174.0235515 206.02148932 173.04832351 207.04414651 172.07421875 208.06787109 C169.50372768 210.75841143 166.9030982 213.41720089 164.28686523 216.06323242 C163.20635654 217.16056479 162.1312757 218.26326438 161.0612793 219.37084961 C159.49409597 220.99242439 157.91141676 222.59725964 156.32421875 224.19921875 C155.84812668 224.69798019 155.37203461 225.19674164 154.8815155 225.71061707 C153.5144043 227.0690918 153.5144043 227.0690918 151 229 C148.76489258 228.92504883 148.76489258 228.92504883 147 228 C144.69304922 225.047103 143.68037758 222.03757849 142.625 218.5 C140.87029523 213.02677578 138.02159852 210.33241721 133.25 207.1875 C127.88903866 205.2286872 123.21894218 205.26035261 117.8125 207.0625 C113.34373545 210.14098225 109.73275169 213.80174494 108 219 C107.15949644 225.08764719 108.01149456 229.26366787 111.58984375 234.27734375 C115.58422687 239.15690873 118.86398646 240.2758548 124.83984375 241.36328125 C128.26433919 242.37267141 129.77719275 244.27526854 132 247 C128.05074799 251.72723581 123.94090556 256.20786658 119.578125 260.5546875 C118.99206482 261.14170441 118.40600464 261.72872131 117.80218506 262.33352661 C116.57654453 263.5598418 115.34966378 264.78491862 114.12158203 266.00878906 C112.23742939 267.88753454 110.35873922 269.77162576 108.48046875 271.65625 C107.28417509 272.85188369 106.08757173 274.0472076 104.890625 275.2421875 C104.32917786 275.80565887 103.76773071 276.36913025 103.18927002 276.94967651 C99.50838642 280.60829183 97.54518543 282.17986468 92.375 282.5 C91.55773437 282.5721875 90.74046875 282.644375 89.8984375 282.71875 C80.46096413 280.37846011 71.73160605 267.84091465 65 261.0625 C63.7359115 259.79338627 62.47159044 258.52450411 61.20703125 257.25585938 C58.13533276 254.1732368 55.06679992 251.08749572 52 248 C54.71630859 243.12548828 54.71630859 243.12548828 57.26953125 241.99609375 C58.10871094 241.81175781 58.94789063 241.62742187 59.8125 241.4375 C65.88317063 239.86231141 70.63063755 237.49738084 74 232 C75.87610932 226.37167204 76.53576823 219.13530538 73.87109375 213.6953125 C70.32311261 209.37844772 66.29947556 206.49436587 60.6796875 205.65234375 C55.11975674 205.32078825 51.22632006 206.19394615 46.68359375 209.45703125 C42.06258713 213.69206052 40.41938966 219.24314474 38.7109375 225.08203125 C38 227 38 227 36 229 C32.68669427 228.66857199 31.01683284 227.38884524 28.71606445 225.07250977 C28.09895096 224.45839737 27.48183746 223.84428497 26.84602356 223.21156311 C26.1917186 222.54491135 25.53741364 221.87825958 24.86328125 221.19140625 C24.18323532 220.50948715 23.50318939 219.82756805 22.80253601 219.12498474 C21.36768585 217.68341633 19.93643604 216.23825667 18.50854492 214.78979492 C16.31746726 212.56753795 14.11587584 210.35615181 11.91210938 208.14648438 C10.52020733 206.74541329 9.12891032 205.34374083 7.73828125 203.94140625 C7.07790359 203.27677872 6.41752594 202.61215118 5.73713684 201.92738342 C5.12947983 201.31011887 4.52182281 200.69285431 3.89575195 200.05688477 C3.35932571 199.51363052 2.82289948 198.97037628 2.2702179 198.41065979 C-0.34716199 195.50388877 -0.10660015 193.16761301 -0.0625 189.375 C-0.05347656 188.37210938 -0.04445313 187.36921875 -0.03515625 186.3359375 C-0.02355469 185.56507813 -0.01195312 184.79421875 0 184 C-0.70125 184.08121094 -1.4025 184.16242188 -2.125 184.24609375 C-3.548125 184.34083984 -3.548125 184.34083984 -5 184.4375 C-5.928125 184.51871094 -6.85625 184.59992188 -7.8125 184.68359375 C-12.80578757 183.61272938 -15.42629572 180.52775054 -19 177 C-19.75095947 176.26392014 -19.75095947 176.26392014 -20.51708984 175.51296997 C-24.71187651 171.39626948 -28.85855501 167.23274276 -33 163.0625 C-34.2640885 161.79338627 -35.52840956 160.52450411 -36.79296875 159.25585938 C-39.86466724 156.1732368 -42.93320008 153.08749572 -46 150 C-44.63016497 146.83884224 -44.0109362 146.0072908 -41 144 C-39.5737111 143.65769067 -38.13372152 143.36978361 -36.6875 143.125 C-31.68955583 142.05401196 -27.86733084 140.56539845 -24.74609375 136.27734375 C-21.92143543 131.32681018 -20.99714233 126.63221076 -22 121 C-24.06448974 115.39165355 -27.76948146 111.83839818 -32.89453125 108.921875 C-37.35125521 106.97050793 -41.8956129 107.27724724 -46.4453125 108.83984375 C-51.45117637 111.29321268 -54.14113124 113.80769892 -56.3125 118.9453125 C-56.95006469 120.85076151 -57.4501769 122.8007076 -57.9375 124.75 C-59.20557595 128.62882055 -60.78578065 129.62674013 -64 132 C-68.52770811 127.52301253 -73.04754835 123.03819406 -77.56201172 118.54785156 C-79.09862221 117.021297 -80.63702317 115.49654252 -82.17724609 113.97363281 C-84.39113252 111.78401207 -86.598494 109.58799335 -88.8046875 107.390625 C-89.49432587 106.7113092 -90.18396423 106.03199341 -90.89450073 105.33209229 C-91.53501373 104.69173035 -92.17552673 104.05136841 -92.83544922 103.39160156 C-93.39948456 102.83200745 -93.9635199 102.27241333 -94.54464722 101.69586182 C-97.77663085 97.92976627 -98.68164405 94.34138303 -98.45703125 89.45605469 C-96.7396022 80.2267084 -82.2930447 70.35597439 -75.6484375 63.97070312 C-73.86882555 62.25735332 -72.10527596 60.52878752 -70.34375 58.796875 C-69.79182983 58.27389832 -69.23990967 57.75092163 -68.67126465 57.21209717 C-66.97255012 55.58363819 -66.97255012 55.58363819 -65 53 C-64.89502405 50.71939426 -64.89502405 50.71939426 -66 49 C-68.51413183 47.18982508 -70.74430578 46.85357919 -73.8125 46.25 C-78.61941144 45.09311273 -81.77506294 42.70270551 -85 39 C-88.02613195 33.82629053 -89.05328838 28.88423606 -88 23 C-85.87821189 17.52853715 -82.34966107 13.6873117 -77.23828125 10.84765625 C-72.36869694 9.00350303 -67.6519665 9.14335103 -62.7265625 10.734375 C-57.04807571 13.30974819 -53.33176927 17.17057682 -51 23 C-50.55556566 25.06168154 -50.12614765 27.11852921 -49.7578125 29.1953125 C-48.73116523 31.64021476 -47.34886046 31.93276333 -45 33 C-44.60798401 32.60354279 -44.21596802 32.20708557 -43.81207275 31.7986145 C-39.73006853 27.6723547 -35.64103447 23.55315864 -31.54785156 19.43798828 C-30.021297 17.90137779 -28.49654252 16.36297683 -26.97363281 14.82275391 C-24.78401207 12.60886748 -22.58799335 10.401506 -20.390625 8.1953125 C-19.7113092 7.50567413 -19.03199341 6.81603577 -18.33209229 6.10549927 C-17.69173035 5.46498627 -17.05136841 4.82447327 -16.39160156 4.16455078 C-15.83200745 3.60051544 -15.27241333 3.0364801 -14.69586182 2.45535278 C-10.00026643 -1.57430798 -5.76178338 -1.83487629 0 0 Z " fill="#AAE1EB" transform="translate(157,162)"/>
<path d="M0 0 C5.83646554 2.91882083 10.3174355 6.95205715 14.765625 11.6484375 C15.99716122 12.91298895 17.22893886 14.17730531 18.4609375 15.44140625 C20.36998361 17.4191622 22.27471837 19.4008408 24.17480469 21.38720703 C26.02775826 23.31827439 27.89558266 25.23393646 29.765625 27.1484375 C30.33234924 27.75037933 30.89907349 28.35232117 31.48297119 28.97250366 C33.24220907 30.82393057 33.24220907 30.82393057 36 33 C38.12049146 32.92865604 38.12049146 32.92865604 40 32 C41.41389614 29.20265838 41.41389614 29.20265838 42.4375 25.8125 C44.83681334 19.13392354 46.78901741 15.18930631 52.75 11.125 C58.35223901 9.18576342 63.02250015 9.43021191 68.6875 11.0625 C73.22947646 13.71912774 76.63367534 17.26735068 79 22 C79.50178565 28.44601568 79.96229274 34.58486659 76 40 C71.07996158 44.92003842 66.52045034 47.05108994 59.8046875 48.2421875 C57.35978524 49.26883477 57.06723667 50.65113954 56 53 C56.89307861 53.8878418 57.78615723 54.77568359 58.70629883 55.69042969 C62.02427688 58.99028505 65.33892589 62.29346727 68.65258789 65.59765625 C70.0862539 67.02629868 71.52081685 68.45404162 72.95629883 69.88085938 C75.02141937 71.93382795 77.08327529 73.99002716 79.14453125 76.046875 C79.78526077 76.68244324 80.4259903 77.31801147 81.08613586 77.97283936 C89.43876749 86.32442021 89.43876749 86.32442021 89.625 92.25 C89.67914063 93.14203125 89.73328125 94.0340625 89.7890625 94.953125 C88.542886 99.76509366 85.40935034 102.48474728 82 106 C81.02203867 107.02988098 80.04470619 108.06035933 79.06787109 109.09130859 C76.28658943 112.01178951 73.47024088 114.89564102 70.63818359 117.7668457 C69.45289907 118.97395837 68.27393489 120.18730661 67.10107422 121.40649414 C65.39147676 123.18268391 63.6632706 124.93865856 61.9296875 126.69140625 C61.40873505 127.24018936 60.88778259 127.78897247 60.3510437 128.35438538 C58.84326172 129.85375977 58.84326172 129.85375977 56 132 C53.20361328 131.92944336 53.20361328 131.92944336 51 131 C49.12991659 128.53936393 48.81073051 126.16180656 48.125 123.125 C46.96896149 118.41326727 45.3218885 114.69534716 41.27734375 111.7421875 C36.2778437 108.89952942 31.67911488 108.15394937 26 109 C20.55810201 110.813966 17.2216675 114.38262638 14 119 C12.41064298 123.76807106 11.94490211 128.50454026 13.94140625 133.2265625 C17.5682043 139.29775423 21.26797585 142.61188065 28.125 144.5625 C28.97320312 144.77003906 29.82140625 144.97757813 30.6953125 145.19140625 C33.24172158 146.0848074 34.47692065 146.76790095 36 149 C35.57041358 152.31223724 34.40939468 153.96275583 32.07250977 156.28393555 C31.45839737 156.90104904 30.84428497 157.51816254 30.21156311 158.15397644 C29.54491135 158.8082814 28.87825958 159.46258636 28.19140625 160.13671875 C27.50948715 160.81676468 26.82756805 161.49681061 26.12498474 162.19746399 C24.68341633 163.63231415 23.23825667 165.06356396 21.78979492 166.49145508 C19.56753795 168.68253274 17.35615181 170.88412416 15.14648438 173.08789062 C13.74541329 174.47979267 12.34374083 175.87108968 10.94140625 177.26171875 C10.27677872 177.92209641 9.61215118 178.58247406 8.92738342 179.26286316 C8.31011887 179.87052017 7.69285431 180.47817719 7.05688477 181.10424805 C6.51363052 181.64067429 5.97037628 182.17710052 5.41065979 182.7297821 C2.86747226 185.01977601 0.71463482 185.29321147 -2.625 185.5 C-3.44226563 185.5721875 -4.25953125 185.644375 -5.1015625 185.71875 C-14.53903587 183.37846011 -23.26839395 170.84091465 -30 164.0625 C-31.2640885 162.79338627 -32.52840956 161.52450411 -33.79296875 160.25585938 C-36.86466724 157.1732368 -39.93320008 154.08749572 -43 151 C-41.27148438 147.11328125 -41.27148438 147.11328125 -38.828125 146.09375 C-37.97734375 145.8978125 -37.1265625 145.701875 -36.25 145.5 C-29.50050262 143.6910569 -24.98636557 140.83717816 -21 135 C-18.85325032 130.9211756 -18.53428764 127.5795049 -19 123 C-20.97441328 117.11041495 -23.96034855 113.53847868 -29 110 C-34.00321898 108.33226034 -39.24612379 107.98039877 -44.2578125 109.8359375 C-51.17010973 113.75202985 -54.34022307 119.50232877 -56.5625 126.9375 C-56.84287109 128.06478516 -56.84287109 128.06478516 -57.12890625 129.21484375 C-58 131 -58 131 -59.8444519 131.78410339 C-62 132 -62 132 -63.68240356 130.93232727 C-64.23596527 130.37369492 -64.78952698 129.81506256 -65.35986328 129.23950195 C-65.99376984 128.61167313 -66.62767639 127.9838443 -67.28079224 127.33699036 C-67.95383392 126.64441635 -68.62687561 125.95184235 -69.3203125 125.23828125 C-70.37011795 124.18497871 -70.37011795 124.18497871 -71.44113159 123.11039734 C-72.92124215 121.62053142 -74.39530712 120.12463903 -75.86376953 118.62329102 C-78.11072974 116.32708303 -80.37566023 114.04993013 -82.64453125 111.77539062 C-84.07922281 110.32660714 -85.51285238 108.87677107 -86.9453125 107.42578125 C-87.62240265 106.7433284 -88.2994928 106.06087555 -88.99710083 105.35774231 C-89.93850418 104.39235786 -89.93850418 104.39235786 -90.89892578 103.4074707 C-91.4508963 102.84486038 -92.00286682 102.28225006 -92.57156372 101.70259094 C-95.15378135 98.62477753 -96.3881534 95.90293117 -96.1875 91.875 C-95.52097023 87.68065216 -94.09352395 85.56831618 -91.2109375 82.484375 C-90.39939209 81.61474121 -89.58784668 80.74510742 -88.75170898 79.84912109 C-83.70895384 74.62784946 -78.59057811 69.48716229 -73.4375 64.375 C-72.32202917 63.26456039 -71.20679339 62.15388462 -70.09179688 61.04296875 C-67.39722369 58.35925841 -64.69952327 55.67873064 -62 53 C-62.66375829 49.99760294 -62.66375829 49.99760294 -64.5625 48.9375 C-67.16493667 47.8503886 -67.16493667 47.8503886 -70.75 47.3125 C-76.44986464 45.97826202 -81.08044705 42.00667841 -84.20703125 37.109375 C-86.16037108 31.9132986 -85.60239418 25.87805244 -83.9375 20.6875 C-80.78865584 16.31974842 -77.15929816 12.71976605 -72 11 C-66.47178223 10.43424672 -60.83141482 9.87008345 -56 13 C-51.40824441 16.95494277 -49.50384882 22.07907638 -48 27.8125 C-46.87942693 31.38432666 -45.99589736 31.98864149 -43 34 C-42.09233887 33.07662842 -41.18467773 32.15325684 -40.24951172 31.2019043 C-36.86903925 27.7669921 -33.47853369 24.34213211 -30.08496094 20.92016602 C-28.61965274 19.43980328 -27.15705243 17.95675494 -25.69726562 16.47094727 C-23.59436741 14.3315205 -21.4818103 12.20204992 -19.3671875 10.07421875 C-18.39650833 9.0803138 -18.39650833 9.0803138 -17.40621948 8.06632996 C-12.4032244 3.06150698 -7.4885854 -1.19817366 0 0 Z " fill="#EDC3AA" transform="translate(351,160)"/>
<path d="M0 0 C2.21972656 1.64306641 2.21972656 1.64306641 4.515625 3.7890625 C5.38525879 4.60060791 6.25489258 5.41215332 7.15087891 6.24829102 C12.37215054 11.29104616 17.51283771 16.40942189 22.625 21.5625 C23.73543961 22.67797083 24.84611538 23.79320661 25.95703125 24.90820312 C28.64074159 27.60277631 31.32126936 30.30047673 34 33 C37.42751425 29.70695188 39.50261014 27.69359935 40.5 23 C41.70847666 18.40505766 43.22287997 16.040121 47 13 C47.57105469 12.47148437 48.14210937 11.94296875 48.73046875 11.3984375 C53.48116582 8.47115772 59.6319476 9.44382228 65 10 C69.93852217 12.25265923 72.80894426 15.71486801 76 20 C77.73626221 25.20878663 78.10420263 30.37599079 75.94140625 35.515625 C71.72904395 42.41065705 66.71021041 45.02763413 59.125 47.125 C55.92850357 47.7446556 55.92850357 47.7446556 54 50 C54.33418519 53.25867304 55.5346936 54.89920102 57.83569336 57.14453125 C58.429785 57.73194092 59.02387665 58.31935059 59.63597107 58.92456055 C60.28074905 59.54758057 60.92552704 60.17060059 61.58984375 60.8125 C62.2495668 61.46323486 62.90928986 62.11396973 63.58900452 62.78442383 C65.69816504 64.86355611 67.81691803 66.93252269 69.9375 69 C72.05364345 71.06830606 74.16746823 73.13878237 76.27528381 75.21557617 C77.58681394 76.50736442 78.90325263 77.79419232 80.2250824 79.07543945 C80.8223262 79.66284912 81.41957001 80.25025879 82.03491211 80.85546875 C82.56040146 81.36746826 83.08589081 81.87946777 83.62730408 82.40698242 C86.12230425 85.30243732 86.9523625 87.57126249 87.375 91.375 C86.63215907 98.55579568 81.06346378 103.26565967 76.1875 108.18359375 C75.53676514 108.84335709 74.88603027 109.50312042 74.21557617 110.18287659 C72.84662823 111.56626053 71.47491367 112.94691166 70.10058594 114.32495117 C67.99427735 116.44325524 65.90734728 118.5795223 63.8203125 120.71679688 C62.48552476 122.06103849 61.14962561 123.40417761 59.8125 124.74609375 C59.18947998 125.38864609 58.56645996 126.03119843 57.92456055 126.69322205 C57.04344604 127.56521996 57.04344604 127.56521996 56.14453125 128.45483398 C55.63253174 128.97190414 55.12053223 129.4889743 54.59301758 130.02171326 C53 131 53 131 50.9050293 130.78797913 C47.95343101 129.56710665 47.33914991 127.86091117 46 125 C45.66470117 123.67221661 45.35341494 122.3382087 45.0625 121 C43.95561672 116.1823359 41.80657479 113.31969648 37.796875 110.390625 C32.53667071 107.77521616 26.72723433 108.38828835 21 109 C16.94611585 110.44253177 14.18153839 113.32583007 12 117 C10.11806264 123.06991064 9.88128351 129.72113308 12.6875 135.4375 C17.36689847 140.62277939 21.0470541 142.41684693 27.68359375 144.20703125 C30.55586218 145.19028672 32.17338357 146.59218744 34 149 C28.30990735 155.74297283 22.33574037 162.1639795 16.1887207 168.4909668 C14.9359121 169.79072515 13.69399874 171.10107225 12.46313477 172.42163086 C0.89152133 184.81791984 0.89152133 184.81791984 -5.89453125 185.28515625 C-11.89562535 184.39501307 -14.98092076 181.30134705 -19 177 C-20.04506043 175.95924848 -21.09494674 174.92333044 -22.1484375 173.89111328 C-25.79570951 170.31118202 -29.39882945 166.68871149 -33 163.0625 C-34.2640885 161.79338627 -35.52840956 160.52450411 -36.79296875 159.25585938 C-39.86466724 156.1732368 -42.93320008 153.08749572 -46 150 C-44.63016497 146.83884224 -44.0109362 146.0072908 -41 144 C-39.5737111 143.65769067 -38.13372152 143.36978361 -36.6875 143.125 C-31.68955583 142.05401196 -27.86733084 140.56539845 -24.74609375 136.27734375 C-21.92143543 131.32681018 -20.99714233 126.63221076 -22 121 C-24.06448974 115.39165355 -27.76948146 111.83839818 -32.89453125 108.921875 C-37.35125521 106.97050793 -41.8956129 107.27724724 -46.4453125 108.83984375 C-51.45117637 111.29321268 -54.14113124 113.80769892 -56.3125 118.9453125 C-56.95006469 120.85076151 -57.4501769 122.8007076 -57.9375 124.75 C-59.20557595 128.62882055 -60.78578065 129.62674013 -64 132 C-68.52770811 127.52301253 -73.04754835 123.03819406 -77.56201172 118.54785156 C-79.09862221 117.021297 -80.63702317 115.49654252 -82.17724609 113.97363281 C-84.39113252 111.78401207 -86.598494 109.58799335 -88.8046875 107.390625 C-89.49432587 106.7113092 -90.18396423 106.03199341 -90.89450073 105.33209229 C-91.53501373 104.69173035 -92.17552673 104.05136841 -92.83544922 103.39160156 C-93.39948456 102.83200745 -93.9635199 102.27241333 -94.54464722 101.69586182 C-97.77663085 97.92976627 -98.68164405 94.34138303 -98.45703125 89.45605469 C-96.7396022 80.2267084 -82.2930447 70.35597439 -75.6484375 63.97070312 C-73.86882555 62.25735332 -72.10527596 60.52878752 -70.34375 58.796875 C-69.79182983 58.27389832 -69.23990967 57.75092163 -68.67126465 57.21209717 C-66.97255012 55.58363819 -66.97255012 55.58363819 -65 53 C-64.89502405 50.71939426 -64.89502405 50.71939426 -66 49 C-68.51413183 47.18982508 -70.74430578 46.85357919 -73.8125 46.25 C-78.61941144 45.09311273 -81.77506294 42.70270551 -85 39 C-88.02613195 33.82629053 -89.05328838 28.88423606 -88 23 C-85.87821189 17.52853715 -82.34966107 13.6873117 -77.23828125 10.84765625 C-72.36869694 9.00350303 -67.6519665 9.14335103 -62.7265625 10.734375 C-57.04807571 13.30974819 -53.33176927 17.17057682 -51 23 C-50.55556566 25.06168154 -50.12614765 27.11852921 -49.7578125 29.1953125 C-48.73116523 31.64021476 -47.34886046 31.93276333 -45 33 C-44.60798401 32.60354279 -44.21596802 32.20708557 -43.81207275 31.7986145 C-39.73006853 27.6723547 -35.64103447 23.55315864 -31.54785156 19.43798828 C-30.021297 17.90137779 -28.49654252 16.36297683 -26.97363281 14.82275391 C-24.78401207 12.60886748 -22.58799335 10.401506 -20.390625 8.1953125 C-19.7113092 7.50567413 -19.03199341 6.81603577 -18.33209229 6.10549927 C-17.69173035 5.46498627 -17.05136841 4.82447327 -16.39160156 4.16455078 C-15.83200745 3.60051544 -15.27241333 3.0364801 -14.69586182 2.45535278 C-10.00026643 -1.57430798 -5.76178338 -1.83487629 0 0 Z " fill="#C6E6B9" transform="translate(157,162)"/>
<path d="M0 0 C3.26743521 3.26400183 6.52801126 6.53468143 9.78422546 9.80987549 C12.26439995 12.30345563 14.74725689 14.7943578 17.23022461 17.28515625 C18.54133105 18.60133246 19.85154458 19.9183987 21.16088867 21.23632812 C23.05674903 23.14426704 24.95577617 25.04900269 26.85546875 26.953125 C27.44192673 27.54474426 28.0283847 28.13636353 28.63261414 28.74591064 C32.82699622 32.94087478 34.7757563 34.08639877 40.625 34.5625 C41.62789062 34.64628906 42.63078125 34.73007813 43.6640625 34.81640625 C44.43492187 34.87699219 45.20578125 34.93757813 46 35 C45.95359375 35.58007812 45.9071875 36.16015625 45.859375 36.7578125 C45.82328125 37.53898437 45.7871875 38.32015625 45.75 39.125 C45.70359375 39.89070313 45.6571875 40.65640625 45.609375 41.4453125 C46.60358076 47.9474182 52.47285441 52.74093315 56.953125 57.1484375 C57.94345734 58.13452499 57.94345734 58.13452499 58.95379639 59.14053345 C61.04785262 61.22346262 63.14878065 63.29929958 65.25 65.375 C66.67754421 66.79250476 68.10463247 68.21046886 69.53125 69.62890625 C73.01557984 73.09127494 76.50608668 76.54730344 80 80 C77 80 77 80 75.52723694 78.87454224 C75.01301682 78.34762787 74.49879669 77.8207135 73.96899414 77.27783203 C73.38150894 76.68366486 72.79402374 76.08949768 72.18873596 75.47732544 C71.56055466 74.82738617 70.93237335 74.1774469 70.28515625 73.5078125 C69.63300644 72.8466745 68.98085663 72.1855365 68.3089447 71.50436401 C66.21955852 69.38488248 64.14029687 67.25583985 62.0625 65.125 C59.98746658 63.00214589 57.91027866 60.88159433 55.82676697 58.76705933 C54.52942107 57.44995862 53.23703635 56.12794853 51.95021057 54.80056763 C51.35957321 54.20009613 50.76893585 53.59962463 50.16040039 52.98095703 C49.64538467 52.45245148 49.13036896 51.92394592 48.5997467 51.37942505 C44.21144512 47.59549281 40.56095616 47.73519256 35 48 C34.01 48.33 33.02 48.66 32 49 C32.165 48.484375 32.33 47.96875 32.5 47.4375 C33.4399421 42.85528227 33.77055086 39.34964079 31.40136719 35.19995117 C28.76329082 31.45694917 25.54640495 28.35106564 22.265625 25.17578125 C20.95692387 23.88747887 19.6483333 22.59906415 18.33984375 21.31054688 C16.28577383 19.30016482 14.22928691 17.29232431 12.17041016 15.28686523 C10.17498044 13.3395096 8.18868031 11.38319625 6.203125 9.42578125 C5.58133362 8.82574783 4.95954224 8.22571442 4.31890869 7.60749817 C2.82161107 6.1278244 1.40281604 4.56953553 0 3 C0 2.01 0 1.02 0 0 Z " fill="#FCFAFB" transform="translate(210,212)"/>
</svg>
