<?xml version="1.0" encoding="UTF-8"?>
<svg version="1.1" xmlns="http://www.w3.org/2000/svg" width="500" height="500">
<path d="M0 0 C3.67562746 2.31199773 6.82173116 5.05173746 10 8 C10.721875 8.66515625 11.44375 9.3303125 12.1875 10.015625 C15.62168075 13.31133072 15.62168075 13.31133072 17 15 C17 15.66 17 16.32 17 17 C17.66 17 18.32 17 19 17 C19 17.66 19 18.32 19 19 C19.66 19 20.32 19 21 19 C21 19.66 21 20.32 21 21 C21.58394531 21.2578125 22.16789063 21.515625 22.76953125 21.78125 C25.17749249 23.09698364 26.77472693 24.54158592 28.6875 26.5 C29.28949219 27.1084375 29.89148438 27.716875 30.51171875 28.34375 C32 30 32 30 33 32 C34.32 32 35.64 32 37 32 C37.27263672 31.02160156 37.27263672 31.02160156 37.55078125 30.0234375 C40.03249643 21.39470473 42.45662708 15.26321701 50 10 C55.25181621 8.2493946 61.06057849 7.9427963 66.32421875 9.8359375 C71.36163263 12.69526957 75.00158505 16.52286272 77 22 C77.91255461 28.17729277 77.74181899 33.80973495 74 39 C68.84374722 44.98547472 62.44221259 46.92253507 55 49 C55 53.67726684 55.61605236 54.16166768 58.6875 57.4375 C59.37199219 58.17871094 60.05648438 58.91992188 60.76171875 59.68359375 C63.81839548 62.84696077 66.93161349 65.9487743 70.06713867 69.03393555 C72.46526583 71.39376121 74.85769363 73.75927481 77.25 76.125 C78.07757813 76.93582031 78.90515625 77.74664062 79.7578125 78.58203125 C80.93730469 79.75185547 80.93730469 79.75185547 82.140625 80.9453125 C82.85766602 81.65187988 83.57470703 82.35844727 84.31347656 83.08642578 C87.75831953 86.99503597 87.1561047 91.08270204 87 96 C86.67 96.66 86.34 97.32 86 98 C86.66 97.67 87.32 97.34 88 97 C94.14795982 96.48767002 97.07195122 97.20353836 102 101 C104.36124307 103.15192166 106.57388226 105.43344511 108.7890625 107.734375 C110.0726507 109.04322963 111.35651289 110.35181561 112.640625 111.66015625 C114.64354847 113.71290614 116.64312197 115.76872428 118.63769531 117.82958984 C120.57528491 119.8274031 122.52497845 121.81274407 124.4765625 123.796875 C125.3688707 124.72956207 125.3688707 124.72956207 126.27920532 125.68109131 C127.77825426 127.19819913 129.38310787 128.60916439 131 130 C132.32 130 133.64 130 135 130 C135.25523437 128.93072266 135.25523437 128.93072266 135.515625 127.83984375 C139.05465685 113.85313807 139.05465685 113.85313807 145.5 109.0625 C150.76905127 106.10357382 156.13033694 106.02172282 162 107 C167.70205242 109.18455255 171.08088291 112.62882455 174 118 C175.83329441 123.49988323 175.80919559 128.9086172 173.4375 134.25 C170.60238327 139.21886312 166.89300656 142.1074767 161.4296875 143.79296875 C159.67988399 144.2546516 157.92989206 144.71562108 156.1796875 145.17578125 C153.70678128 145.89731009 153.70678128 145.89731009 151.875 148.6875 C151.58625 149.450625 151.2975 150.21375 151 151 C151.89489136 151.38816895 151.89489136 151.38816895 152.80786133 151.78417969 C155.18315096 153.10158055 156.36955752 154.35549821 158.07421875 156.453125 C163.09741172 162.38926017 168.70315179 167.73550953 174.26147461 173.16552734 C175.66435754 174.53819726 177.06078699 175.91745296 178.45703125 177.296875 C179.6941687 178.50875488 179.6941687 178.50875488 180.95629883 179.74511719 C183.91960567 183.01463122 184.91242172 185.03663889 185.3125 189.4375 C184.80779119 195.1911804 181.83227735 198.42052322 177.8046875 202.35546875 C177.00675781 203.14244141 176.20882813 203.92941406 175.38671875 204.74023438 C174.55785156 205.54783203 173.72898437 206.35542969 172.875 207.1875 C171.22439068 208.80377461 169.57584351 210.42215874 167.9296875 212.04296875 C167.19991699 212.75477295 166.47014648 213.46657715 165.71826172 214.19995117 C163.92815362 215.89861352 163.92815362 215.89861352 163 218 C162.34 218 161.68 218 161 218 C160.34 219.32 159.68 220.64 159 222 C158.34 222 157.68 222 157 222 C156.773125 222.5775 156.54625 223.155 156.3125 223.75 C154.66961977 226.5663661 152.60466773 228.08077114 150 230 C148.1875 229.4375 148.1875 229.4375 146 228 C144.50394383 225.00788767 143.3494026 222.12490593 142.359375 218.9375 C140.61364388 213.57851145 138.7273395 211.15155967 134 208 C128.9393568 205.52590777 124.37130812 205.68851364 119 207 C114.71629455 209.10144041 111.89901583 211.57335142 109.6953125 215.87890625 C107.87703868 221.4256629 107.94574551 227.67000719 110.5625 232.9375 C114.99286227 238.50385259 120.35104748 240.32433329 126.984375 242.19140625 C129.23764159 243.09533296 130.41385318 244.18797784 132 246 C130.81183712 250.15857007 128.98863022 252.05472521 125.58984375 254.6640625 C123.90201544 256.08233592 122.61596974 257.58578454 121.25 259.3125 C120.5075 260.199375 119.765 261.08625 119 262 C118.34 262 117.68 262 117 262 C116.7321167 262.59095459 116.4642334 263.18190918 116.18823242 263.79077148 C114.2133958 267.46249875 111.23816426 270.13074695 108.3125 273.0625 C107.71244141 273.68705078 107.11238281 274.31160156 106.49414062 274.95507812 C102.05887824 279.41892437 97.93130776 282.88999286 91.34765625 283.07421875 C90.59355469 282.94660156 89.83945312 282.81898438 89.0625 282.6875 C87.90427734 282.50767578 87.90427734 282.50767578 86.72265625 282.32421875 C86.15417969 282.21722656 85.58570313 282.11023438 85 282 C85.33 282.99 85.66 283.98 86 285 C86.55572221 290.77951095 85.22486899 294.32253785 82 299 C80.08000076 301.2797312 78.013739 303.36380781 75.875 305.4375 C75.06869141 306.24864258 75.06869141 306.24864258 74.24609375 307.07617188 C70.26769912 311 70.26769912 311 68 311 C68 311.66 68 312.32 68 313 C66.49609375 314.4453125 66.49609375 314.4453125 64.4375 316.125 C60.71662834 319.26531012 57.60998083 322.62477418 54.54296875 326.3984375 C53 328 53 328 50 329 C46.2434117 325.9541176 44.72875439 323.77154138 43.5 319.0625 C42.03639862 313.51404507 39.92865835 310.05006085 35.125 306.6875 C29.13170802 304.74849377 23.80277284 304.52007813 18 307 C15.12448478 309.20864421 15.12448478 309.20864421 13 312 C12.401875 312.70125 11.80375 313.4025 11.1875 314.125 C9.08340936 319.21911419 9.02968303 324.85224556 10.65625 330.12890625 C13.38793858 335.58050889 17.84569316 337.92407171 23.34765625 339.80078125 C24.88577785 340.28847834 26.43114141 340.75421987 27.984375 341.19140625 C30.32447879 342.13016882 31.54239289 342.9350566 33 345 C32.97598279 347.93610354 32.04864273 348.94953796 30.015625 351.05859375 C29.10296875 351.84363281 28.1903125 352.62867188 27.25 353.4375 C22.89974774 357.22921829 18.80757392 361.18861825 14.8125 365.35546875 C13.89694336 366.30301025 12.98138672 367.25055176 12.03808594 368.22680664 C10.19401773 370.1357349 8.37544566 372.06146617 6.56347656 374.00170898 C-0.69945928 381.49628167 -0.69945928 381.49628167 -5.203125 382.3046875 C-13.42805138 381.64466254 -17.90863924 377.70075666 -23.5 372.06640625 C-24.18054443 371.39206039 -24.86108887 370.71771454 -25.56225586 370.02293396 C-26.9890437 368.60321724 -28.41076716 367.17839455 -29.82763672 365.7487793 C-32.00549012 363.55697471 -34.20641836 361.39035178 -36.41015625 359.22460938 C-37.79572287 357.83999317 -39.17988869 356.45397349 -40.5625 355.06640625 C-41.22378906 354.4183754 -41.88507813 353.77034454 -42.56640625 353.10267639 C-43.16453125 352.49201828 -43.76265625 351.88136017 -44.37890625 351.25219727 C-44.9107251 350.71941666 -45.44254395 350.18663605 -45.99047852 349.63771057 C-47 348 -47 348 -46.74243164 345.9002533 C-45.8357096 343.57949883 -44.97486285 342.5232126 -43 341 C-40.6953125 340.15625 -40.6953125 340.15625 -38.125 339.5 C-32.50832641 337.89173736 -28.72089741 336.66460003 -25.6875 331.4375 C-23.54204247 326.64539199 -23.05040477 322.1654706 -24 317 C-25.69861058 312.8857424 -27.90902903 309.91405676 -31.3125 307.0625 C-37.63839224 304.56156586 -42.67987034 304.50206787 -48.96484375 306.94921875 C-55.84437976 310.50122486 -57.41053495 317.2582305 -59.69140625 324.171875 C-61.16772312 327.36248221 -61.90722427 327.67266899 -65 329 C-71.54174956 323.50105018 -77.64307947 317.57506619 -83.69262695 311.54760742 C-85.31997215 309.9300729 -86.95769607 308.32352466 -88.59570312 306.71679688 C-89.64388462 305.67513831 -90.69143349 304.63284269 -91.73828125 303.58984375 C-92.22267166 303.11780014 -92.70706207 302.64575653 -93.20613098 302.15940857 C-96.7762428 298.56572043 -99.64917045 294.79728097 -100.29296875 289.6640625 C-100.1953125 287.77604167 -100.09765625 285.88802083 -100 284 C-101.175625 284.0825 -102.35125 284.165 -103.5625 284.25 C-108.72553157 284.61231801 -112.90952702 281.75218143 -116.73506165 278.54571533 C-118.52595969 276.86757843 -120.26559209 275.15046522 -121.9921875 273.40625 C-122.6235965 272.77771118 -123.25500549 272.14917236 -123.9055481 271.50158691 C-125.2284798 270.18068466 -126.54767905 268.85603455 -127.86328125 267.52783203 C-129.8795456 265.49541799 -131.9114313 263.47961136 -133.9453125 261.46484375 C-135.23273453 260.17544067 -136.51922638 258.88510801 -137.8046875 257.59375 C-138.41190643 256.99260376 -139.01912537 256.39145752 -139.64474487 255.77209473 C-140.20267731 255.20470581 -140.76060974 254.63731689 -141.33544922 254.05273438 C-141.82729706 253.55849976 -142.3191449 253.06426514 -142.82589722 252.55505371 C-144.22941233 250.69615224 -144.72259855 249.30835698 -145 247 C-142.33422139 243.40217655 -139.85493936 242.4049248 -135.5625 241.5 C-129.78900422 240.06239186 -126.6711771 238.36269866 -123.1875 233.4375 C-121.3123289 228.00937314 -120.94330211 222.42168839 -122.65625 216.875 C-124.52083565 213.14582871 -127.14197923 210.51039652 -130.8828125 208.6640625 C-136.03836603 207.04700697 -141.31793948 206.96505054 -146.37890625 208.91796875 C-153.31930896 212.86747969 -155.02778531 218.61361724 -157.15625 225.94921875 C-158.12061854 228.29317007 -158.92343938 229.53563296 -161 231 C-164.22498037 230.57066873 -165.88357294 229.49405896 -168.16040039 227.2277832 C-168.75103775 226.64660233 -169.34167511 226.06542145 -169.95021057 225.46662903 C-170.57636765 224.83439926 -171.20252472 224.20216949 -171.84765625 223.55078125 C-172.50076279 222.90054489 -173.15386932 222.25030853 -173.82676697 221.58036804 C-175.20631941 220.20285634 -176.58209348 218.82155178 -177.9543457 217.43676758 C-180.04774907 215.32736368 -182.15657979 213.23435645 -184.26757812 211.14257812 C-185.60773329 209.80043952 -186.946957 208.45737005 -188.28515625 207.11328125 C-188.91333755 206.49117264 -189.54151886 205.86906403 -190.18873596 205.22810364 C-194.07597929 201.27828912 -197.51696329 197.42838253 -198.3203125 191.7265625 C-197.45465056 182.41204004 -190.1621425 177.096876 -183.8125 170.890625 C-183.26157684 170.3520285 -182.71065369 169.81343201 -182.14303589 169.2585144 C-179.8423424 167.01320038 -177.54100981 164.76903083 -175.22119141 162.54345703 C-173.51107409 160.89960499 -171.8170405 159.24055037 -170.125 157.578125 C-169.59495361 157.07702209 -169.06490723 156.57591919 -168.51879883 156.05963135 C-166.88587244 154.49678429 -166.88587244 154.49678429 -165 152 C-164.83816535 149.72032282 -164.83816535 149.72032282 -166 148 C-168.57338194 146.80977514 -168.57338194 146.80977514 -171.6875 146.0625 C-178.2815274 144.04983368 -181.7501957 142.07473255 -185.875 136.4375 C-187.78405565 130.6042744 -188.25066499 124.43515985 -186.12109375 118.5859375 C-183.44298763 113.86610691 -180.13222343 110.81016297 -175 109 C-168.77676195 107.38532202 -163.62428098 107.81249721 -158 111 C-151.5323399 116.31785386 -149.4210122 123.27336533 -147 131 C-143.7567389 130.41954868 -142.1464346 129.51207348 -139.85546875 127.16430664 C-139.26805908 126.570215 -138.68064941 125.97612335 -138.07543945 125.36402893 C-137.45241943 124.71925095 -136.82939941 124.07447296 -136.1875 123.41015625 C-135.53676514 122.7504332 -134.88603027 122.09071014 -134.21557617 121.41099548 C-132.13644389 119.30183496 -130.06747731 117.18308197 -128 115.0625 C-125.93169394 112.94635655 -123.86121763 110.83253177 -121.78442383 108.72471619 C-120.49263558 107.41318606 -119.20580768 106.09674737 -117.92456055 104.7749176 C-117.33715088 104.1776738 -116.74974121 103.58042999 -116.14453125 102.96508789 C-115.63253174 102.43959854 -115.12053223 101.91410919 -114.59301758 101.37269592 C-111.33524348 98.56548696 -108.62734718 97.74700293 -104.375 97.875 C-103.59898437 97.89304687 -102.82296875 97.91109375 -102.0234375 97.9296875 C-101.35570312 97.95289063 -100.68796875 97.97609375 -100 98 C-99.34 98 -98.68 98 -98 98 C-98.33 97.34 -98.66 96.68 -99 96 C-99.41195338 90.64460611 -98.73893581 87.59029561 -96 83 C-93.85467313 80.5042141 -91.51610128 78.23645587 -89.14453125 75.95703125 C-88.48289474 75.30675461 -87.82125824 74.65647797 -87.13957214 73.98649597 C-85.03766192 71.92107515 -82.9263545 69.86569042 -80.8125 67.8125 C-78.01881479 65.09839077 -75.2350588 62.37465409 -72.45703125 59.64453125 C-71.81022903 59.02262405 -71.16342682 58.40071686 -70.49702454 57.75996399 C-69.90608505 57.17893417 -69.31514557 56.59790436 -68.70629883 55.99926758 C-68.18240067 55.49107986 -67.6585025 54.98289215 -67.11872864 54.45930481 C-65.69579651 52.9096513 -65.69579651 52.9096513 -66 50 C-67.01320312 49.64808594 -68.02640625 49.29617187 -69.0703125 48.93359375 C-83.71283622 43.62843726 -83.71283622 43.62843726 -87 37 C-89.33194526 31.10092386 -89.52549852 25.84914987 -87 20 C-84.52822384 15.53110036 -81.84499954 11.93799981 -77 10 C-70.53831026 8.56903757 -64.72288395 8.37114427 -59 12 C-52.81555105 17.17267816 -50.24679659 23.40833947 -48 31 C-43.9637271 31.44393373 -43.9637271 31.44393373 -41.61132812 28.86791992 C-40.74958984 27.92150635 -39.88785156 26.97509277 -39 26 C-38.08154297 25.06583252 -37.16308594 24.13166504 -36.21679688 23.16918945 C-35.73279419 22.67550369 -35.2487915 22.18181793 -34.75012207 21.673172 C-32.57779909 19.46039394 -30.3971855 17.25585769 -28.21630859 15.05151367 C-27.06941449 13.88944728 -25.92521528 12.72471517 -24.78369141 11.55737305 C-23.12329119 9.86052502 -21.45333363 8.1736077 -19.78125 6.48828125 C-19.27589722 5.96744461 -18.77054443 5.44660797 -18.24987793 4.9099884 C-12.72575385 -0.61672188 -7.4780275 -2.41761903 0 0 Z M-13 184 C-13 188.29 -13 192.58 -13 197 C-8.71 197 -4.42 197 0 197 C0 192.71 0 188.42 0 184 C-4.29 184 -8.58 184 -13 184 Z " fill="#ABE0EA" transform="translate(256,63)"/>
<path d="M0 0 C3.67562746 2.31199773 6.82173116 5.05173746 10 8 C10.721875 8.66515625 11.44375 9.3303125 12.1875 10.015625 C15.62168075 13.31133072 15.62168075 13.31133072 17 15 C17 15.66 17 16.32 17 17 C17.66 17 18.32 17 19 17 C19 17.66 19 18.32 19 19 C19.66 19 20.32 19 21 19 C21 19.66 21 20.32 21 21 C21.58394531 21.2578125 22.16789062 21.515625 22.76953125 21.78125 C25.17749249 23.09698364 26.77472693 24.54158592 28.6875 26.5 C29.28949219 27.1084375 29.89148438 27.716875 30.51171875 28.34375 C32 30 32 30 33 32 C34.32 32 35.64 32 37 32 C37.27263672 31.02160156 37.27263672 31.02160156 37.55078125 30.0234375 C40.03249643 21.39470473 42.45662708 15.26321701 50 10 C55.25181621 8.2493946 61.06057849 7.9427963 66.32421875 9.8359375 C71.36163263 12.69526957 75.00158505 16.52286272 77 22 C77.91255461 28.17729277 77.74181899 33.80973495 74 39 C68.84374722 44.98547472 62.44221259 46.92253507 55 49 C55 53.67726684 55.61605236 54.16166768 58.6875 57.4375 C59.37199219 58.17871094 60.05648437 58.91992188 60.76171875 59.68359375 C63.81839548 62.84696077 66.93161349 65.9487743 70.06713867 69.03393555 C72.46526583 71.39376121 74.85769363 73.75927481 77.25 76.125 C78.07757813 76.93582031 78.90515625 77.74664062 79.7578125 78.58203125 C80.54414063 79.36191406 81.33046875 80.14179688 82.140625 80.9453125 C82.85766602 81.65187988 83.57470703 82.35844727 84.31347656 83.08642578 C87.75831953 86.99503597 87.1561047 91.08270204 87 96 C86.67 96.66 86.34 97.32 86 98 C86.66 97.67 87.32 97.34 88 97 C94.14795982 96.48767002 97.07195122 97.20353836 102 101 C104.36124307 103.15192166 106.57388226 105.43344511 108.7890625 107.734375 C110.0726507 109.04322963 111.35651289 110.35181561 112.640625 111.66015625 C114.64354847 113.71290614 116.64312197 115.76872428 118.63769531 117.82958984 C120.57528491 119.8274031 122.52497845 121.81274407 124.4765625 123.796875 C125.07143463 124.41866638 125.66630676 125.04045776 126.27920532 125.68109131 C127.77825426 127.19819913 129.38310787 128.60916439 131 130 C132.32 130 133.64 130 135 130 C135.17015625 129.28714844 135.3403125 128.57429687 135.515625 127.83984375 C139.05465685 113.85313807 139.05465685 113.85313807 145.5 109.0625 C150.76905127 106.10357382 156.13033694 106.02172282 162 107 C167.70205242 109.18455255 171.08088291 112.62882455 174 118 C175.83329441 123.49988323 175.80919559 128.9086172 173.4375 134.25 C170.60238327 139.21886312 166.89300656 142.1074767 161.4296875 143.79296875 C159.67988399 144.2546516 157.92989206 144.71562108 156.1796875 145.17578125 C153.70678128 145.89731009 153.70678128 145.89731009 151.875 148.6875 C151.58625 149.450625 151.2975 150.21375 151 151 C151.59659424 151.2587793 152.19318848 151.51755859 152.80786133 151.78417969 C155.18315096 153.10158055 156.36955752 154.35549821 158.07421875 156.453125 C163.09741172 162.38926017 168.70315179 167.73550953 174.26147461 173.16552734 C175.66435754 174.53819726 177.06078699 175.91745296 178.45703125 177.296875 C179.6941687 178.50875488 179.6941687 178.50875488 180.95629883 179.74511719 C183.91960567 183.01463122 184.91242172 185.03663889 185.3125 189.4375 C184.80779119 195.1911804 181.83227735 198.42052322 177.8046875 202.35546875 C177.00675781 203.14244141 176.20882813 203.92941406 175.38671875 204.74023438 C174.55785156 205.54783203 173.72898437 206.35542969 172.875 207.1875 C171.22439068 208.80377461 169.57584351 210.42215874 167.9296875 212.04296875 C167.19991699 212.75477295 166.47014648 213.46657715 165.71826172 214.19995117 C163.92815362 215.89861352 163.92815362 215.89861352 163 218 C162.34 218 161.68 218 161 218 C160.34 219.32 159.68 220.64 159 222 C158.34 222 157.68 222 157 222 C156.773125 222.5775 156.54625 223.155 156.3125 223.75 C154.66961977 226.5663661 152.60466773 228.08077114 150 230 C148.1875 229.4375 148.1875 229.4375 146 228 C144.50394383 225.00788767 143.3494026 222.12490593 142.359375 218.9375 C140.61364388 213.57851145 138.7273395 211.15155967 134 208 C128.9393568 205.52590777 124.37130812 205.68851364 119 207 C114.71629455 209.10144041 111.89901583 211.57335142 109.6953125 215.87890625 C107.87703868 221.4256629 107.94574551 227.67000719 110.5625 232.9375 C114.99286227 238.50385259 120.35104748 240.32433329 126.984375 242.19140625 C129.23764159 243.09533296 130.41385318 244.18797784 132 246 C130.81183712 250.15857007 128.98863022 252.05472521 125.58984375 254.6640625 C123.90201544 256.08233592 122.61596974 257.58578454 121.25 259.3125 C120.5075 260.199375 119.765 261.08625 119 262 C118.34 262 117.68 262 117 262 C116.7321167 262.59095459 116.4642334 263.18190918 116.18823242 263.79077148 C114.2133958 267.46249875 111.23816426 270.13074695 108.3125 273.0625 C107.71244141 273.68705078 107.11238281 274.31160156 106.49414062 274.95507812 C102.06669436 279.41105787 98.01492526 282.65170207 91.5234375 283.21484375 C83.79560197 282.21725044 80.42434761 278.61312895 75.609375 272.79296875 C73.97738356 270.97480352 72.26792087 269.47853174 70.375 267.9375 C67.2028146 265.33127719 65.2091943 262.47159104 63 259 C62.01 258.34 61.02 257.68 60 257 C58.96986723 255.35178756 57.96885372 253.68496298 57 252 C56.34 251.34 55.68 250.68 55 250 C54.875 247.375 54.875 247.375 55 245 C58.37097383 243.50178941 60.20442119 243 64 243 C64 242.34 64 241.68 64 241 C65.66696621 238.98209353 67.19241363 237.8941725 69.5 236.625 C73.1502927 234.25230974 74.47214078 232.00443838 75.578125 227.8046875 C76.76571971 220.78908169 75.08455983 215.77284456 71 210 C65.64812191 205.69239081 59.62289065 205.56005933 53 206 C47.98643104 207.13944749 45.94531939 209.99109306 43 214 C42.67 214.99 42.34 215.98 42 217 C41.34 217 40.68 217 40 217 C39.731875 218.27875 39.46375 219.5575 39.1875 220.875 C38.42809901 224.49675855 38.29922197 224.80051868 35 227 C34.01 227 33.02 227 32 227 C32 226.34 32 225.68 32 225 C31.01 225 30.02 225 29 225 C28.938125 224.38125 28.87625 223.7625 28.8125 223.125 C28.544375 222.42375 28.27625 221.7225 28 221 C26.89591797 220.57267578 26.89591797 220.57267578 25.76953125 220.13671875 C22.50706239 218.79768005 20.47853451 217.05615907 17.875 214.6875 C17.02679688 213.92824219 16.17859375 213.16898438 15.3046875 212.38671875 C13.05754954 210.05959792 11.61757707 207.78050969 10 205 C9.34 204.67 8.68 204.34 8 204 C8 203.34 8 202.68 8 202 C6.6078125 201.9690625 6.6078125 201.9690625 5.1875 201.9375 C2 201 2 201 0.125 197.9375 C-1.30132342 193.87667334 -1.28958565 190.27138831 -1 186 C-0.67 185.34 -0.34 184.68 0 184 C-0.66 184.33 -1.32 184.66 -2 185 C-8.44712464 185.54636649 -11.70328864 184.73885508 -17 181 C-20 177.70967742 -20 177.70967742 -20 175 C-20.83724609 174.90332031 -20.83724609 174.90332031 -21.69140625 174.8046875 C-24.95863755 173.66585561 -26.57992781 171.63150973 -28.9375 169.125 C-32.12449066 165.74590326 -35.03011457 163.37198879 -39 161 C-39 160.34 -39 159.68 -39 159 C-39.66 159 -40.32 159 -41 159 C-44.5111213 156.24126183 -45.88059857 154.86566035 -46.5 150.375 C-46 147 -46 147 -44.875 145.1875 C-42.35643847 143.59241103 -39.8556464 142.86208193 -37 142 C-31.63943717 140.61628484 -31.63943717 140.61628484 -28 137 C-27.34 137 -26.68 137 -26 137 C-25.67 135.68 -25.34 134.36 -25 133 C-24.34 133 -23.68 133 -23 133 C-22.67 128.38 -22.34 123.76 -22 119 C-22.66 119 -23.32 119 -24 119 C-24.433125 118.236875 -24.86625 117.47375 -25.3125 116.6875 C-27.29880648 113.52412301 -28.66421619 112.64286215 -32 111 C-35.6276328 110.17304071 -35.6276328 110.17304071 -39.5 109.75 C-40.7890625 109.57984375 -42.078125 109.4096875 -43.40625 109.234375 C-48.27482902 108.91685898 -50.84756436 109.03963697 -54.625 112.1875 C-57.95759221 116.439428 -58.43124421 121.75962892 -59.32421875 126.953125 C-60 130 -60 130 -62 132 C-66.22288878 131.85438315 -68.24338358 128.89444724 -71 126 C-71.763125 125.443125 -72.52625 124.88625 -73.3125 124.3125 C-73.869375 123.879375 -74.42625 123.44625 -75 123 C-75 122.34 -75 121.68 -75 121 C-75.5775 120.773125 -76.155 120.54625 -76.75 120.3125 C-79.59591381 118.65238361 -80.99841921 116.60812043 -83 114 C-85.70822257 111.14538702 -88.50486314 108.58809636 -91.5625 106.125 C-96.10400283 102.24786549 -98.68900106 98.53241996 -99.4375 92.4375 C-98.4965767 85.04453122 -94.27949332 80.89247858 -89.14453125 75.95703125 C-88.48289474 75.30675461 -87.82125824 74.65647797 -87.13957214 73.98649597 C-85.03766192 71.92107515 -82.9263545 69.86569042 -80.8125 67.8125 C-78.01881479 65.09839077 -75.2350588 62.37465409 -72.45703125 59.64453125 C-71.48682793 58.71167046 -71.48682793 58.71167046 -70.49702454 57.75996399 C-69.90608505 57.17893417 -69.31514557 56.59790436 -68.70629883 55.99926758 C-68.18240067 55.49107986 -67.6585025 54.98289215 -67.11872864 54.45930481 C-65.69579651 52.9096513 -65.69579651 52.9096513 -66 50 C-67.51980469 49.47212891 -67.51980469 49.47212891 -69.0703125 48.93359375 C-83.71283622 43.62843726 -83.71283622 43.62843726 -87 37 C-89.33194526 31.10092386 -89.52549852 25.84914987 -87 20 C-84.52822384 15.53110036 -81.84499954 11.93799981 -77 10 C-70.53831026 8.56903757 -64.72288395 8.37114427 -59 12 C-52.81555105 17.17267816 -50.24679659 23.40833947 -48 31 C-43.9637271 31.44393373 -43.9637271 31.44393373 -41.61132812 28.86791992 C-40.3187207 27.44829956 -40.3187207 27.44829956 -39 26 C-38.08154297 25.06583252 -37.16308594 24.13166504 -36.21679688 23.16918945 C-35.49079285 22.42866081 -35.49079285 22.42866081 -34.75012207 21.673172 C-32.57779909 19.46039394 -30.3971855 17.25585769 -28.21630859 15.05151367 C-27.06941449 13.88944728 -25.92521528 12.72471517 -24.78369141 11.55737305 C-23.12329119 9.86052502 -21.45333363 8.1736077 -19.78125 6.48828125 C-19.27589722 5.96744461 -18.77054443 5.44660797 -18.24987793 4.9099884 C-12.72575385 -0.61672188 -7.4780275 -2.41761903 0 0 Z " fill="#F1C7FE" transform="translate(256,63)"/>
<path d="M0 0 C7.95202569 4.73788357 14.16101675 12.13875788 20.2734375 18.984375 C23.39884188 22.47486301 26.51709488 25.91788005 30.3125 28.6875 C30.869375 29.120625 31.42625 29.55375 32 30 C32 30.66 32 31.32 32 32 C34.97 32.495 34.97 32.495 38 33 C39.451589 28.73232833 40.89658365 24.48086349 42.0625 20.125 C43 17 43 17 45 14 C45.66 14 46.32 14 47 14 C47.66 12.68 48.32 11.36 49 10 C67.19302158 10.67901882 67.19302158 10.67901882 73.9375 16.5625 C76 19 76 19 76 21 C76.66 21 77.32 21 78 21 C78.02705729 22.77074917 78.04642195 24.54161711 78.0625 26.3125 C78.07410156 27.29863281 78.08570313 28.28476563 78.09765625 29.30078125 C78 32 78 32 77 35 C76.01 35.495 76.01 35.495 75 36 C74.67 36.99 74.34 37.98 74 39 C73.34 39 72.68 39 72 39 C71.814375 39.61875 71.62875 40.2375 71.4375 40.875 C69.27478771 44.07205296 66.67669068 44.09589573 63 45 C58.67608296 46.47578633 58.67608296 46.47578633 55 49 C54.63239269 51.32817964 54.29758419 53.6618385 54 56 C54.639375 56.268125 55.27875 56.53625 55.9375 56.8125 C58 58 58 58 59 61 C59.66 61 60.32 61 61 61 C62.03445113 61.96431885 63.02855436 62.97223867 64 64 C65.28408393 65.13364732 66.57625431 66.25817978 67.875 67.375 C70.28717981 69.46408049 72.60715219 71.56910442 74.8125 73.875 C76.89583664 76.20650404 76.89583664 76.20650404 80 77 C81.3726682 78.97321053 82.70427617 80.97543152 84 83 C84.98165594 84.01801357 85.97591432 85.0246803 87 86 C88.74127155 89.4825431 88.57800952 93.19975352 88 97 C85.9375 99.5625 85.9375 99.5625 83 102 C79.75926668 105.45774672 76.67927697 108.89910283 74.1875 112.9375 C70.82886222 117.63959289 66.54109243 121.43991012 62 125 C61.34 125 60.68 125 60 125 C60 125.66 60 126.32 60 127 C59.34 127 58.68 127 58 127 C57.67 127.99 57.34 128.98 57 130 C54.04335481 131.4783226 51.25770263 131.06032783 48 131 C47.84144531 130.19175781 47.68289062 129.38351562 47.51953125 128.55078125 C46.11510922 122.11837315 45.14828493 118.17428508 40 114 C40 113.34 40 112.68 40 112 C33.81594562 110.13311566 27.42400769 108.57562925 21 110 C16.72872943 113.15006204 13.2041397 117.78206129 12 123 C11.73413926 127.78549325 12.2289925 132.27757908 13 137 C13.5775 137.0825 14.155 137.165 14.75 137.25 C17 138 17 138 18.78515625 139.94140625 C21.38910478 142.36165471 23.2519629 142.89397808 26.6875 143.6875 C31.93055556 144.93055556 31.93055556 144.93055556 33 146 C33.38301738 149.25564772 33.67642942 151.86168034 31.953125 154.76171875 C30.16243098 156.93688531 28.53951219 158.73024391 26 160 C25.62875 160.70125 25.2575 161.4025 24.875 162.125 C21.77831429 166.87325142 17.43314743 171.18895086 12 173 C11.71125 173.78375 11.4225 174.5675 11.125 175.375 C9.70423282 178.69012341 8.09745232 179.29640123 5 181 C4.34 181.99 3.68 182.98 3 184 C2.34 184 1.68 184 1 184 C0.67 184.66 0.34 185.32 0 186 C-6.94704025 186.4875116 -11.32898602 185.07695082 -16.73506165 180.54571533 C-18.52595969 178.86757843 -20.26559209 177.15046522 -21.9921875 175.40625 C-22.6235965 174.77771118 -23.25500549 174.14917236 -23.9055481 173.50158691 C-25.2284798 172.18068466 -26.54767905 170.85603455 -27.86328125 169.52783203 C-29.8795456 167.49541799 -31.9114313 165.47961136 -33.9453125 163.46484375 C-35.23273453 162.17544067 -36.51922638 160.88510801 -37.8046875 159.59375 C-38.41190643 158.99260376 -39.01912537 158.39145752 -39.64474487 157.77209473 C-40.48164352 156.92101135 -40.48164352 156.92101135 -41.33544922 156.05273438 C-41.82729706 155.55849976 -42.3191449 155.06426514 -42.82589722 154.55505371 C-44.22941233 152.69615224 -44.72259855 151.30835698 -45 149 C-42.33422139 145.40217655 -39.85493936 144.4049248 -35.5625 143.5 C-29.78900422 142.06239186 -26.6711771 140.36269866 -23.1875 135.4375 C-21.3123289 130.00937314 -20.94330211 124.42168839 -22.65625 118.875 C-24.52083565 115.14582871 -27.14197923 112.51039652 -30.8828125 110.6640625 C-36.03836603 109.04700697 -41.31793948 108.96505054 -46.37890625 110.91796875 C-53.31930896 114.86747969 -55.02778531 120.61361724 -57.15625 127.94921875 C-58.12061854 130.29317007 -58.92343938 131.53563296 -61 133 C-64.22498037 132.57066873 -65.88357294 131.49405896 -68.16040039 129.2277832 C-68.75103775 128.64660233 -69.34167511 128.06542145 -69.95021057 127.46662903 C-70.57636765 126.83439926 -71.20252472 126.20216949 -71.84765625 125.55078125 C-72.50076279 124.90054489 -73.15386932 124.25030853 -73.82676697 123.58036804 C-75.20631941 122.20285634 -76.58209348 120.82155178 -77.9543457 119.43676758 C-80.04774907 117.32736368 -82.15657979 115.23435645 -84.26757812 113.14257812 C-85.60773329 111.80043952 -86.946957 110.45737005 -88.28515625 109.11328125 C-88.91333755 108.49117264 -89.54151886 107.86906403 -90.18873596 107.22810364 C-94.07597929 103.27828912 -97.51696329 99.42838253 -98.3203125 93.7265625 C-97.45465056 84.41204004 -90.1621425 79.096876 -83.8125 72.890625 C-83.26157684 72.3520285 -82.71065369 71.81343201 -82.14303589 71.2585144 C-79.8423424 69.01320038 -77.54100981 66.76903083 -75.22119141 64.54345703 C-73.51107409 62.89960499 -71.8170405 61.24055037 -70.125 59.578125 C-69.59495361 59.07702209 -69.06490723 58.57591919 -68.51879883 58.05963135 C-66.88587244 56.49678429 -66.88587244 56.49678429 -65 54 C-64.83816535 51.72032282 -64.83816535 51.72032282 -66 50 C-68.57338194 48.80977514 -68.57338194 48.80977514 -71.6875 48.0625 C-78.2815274 46.04983368 -81.7501957 44.07473255 -85.875 38.4375 C-87.78405565 32.6042744 -88.25066499 26.43515985 -86.12109375 20.5859375 C-83.44298763 15.86610691 -80.13222343 12.81016297 -75 11 C-68.77676195 9.38532202 -63.62428098 9.81249721 -58 13 C-51.5323399 18.31785386 -49.4210122 25.27336533 -47 33 C-43.7567389 32.41954868 -42.1464346 31.51207348 -39.85546875 29.16430664 C-39.26805908 28.570215 -38.68064941 27.97612335 -38.07543945 27.36402893 C-37.45241943 26.71925095 -36.82939941 26.07447296 -36.1875 25.41015625 C-35.53676514 24.7504332 -34.88603027 24.09071014 -34.21557617 23.41099548 C-32.13644389 21.30183496 -30.06747731 19.18308197 -28 17.0625 C-25.93169394 14.94635655 -23.86121763 12.83253177 -21.78442383 10.72471619 C-20.49263558 9.41318606 -19.20580768 8.09674737 -17.92456055 6.7749176 C-17.33715088 6.1776738 -16.74974121 5.58042999 -16.14453125 4.96508789 C-15.63253174 4.43959854 -15.12053223 3.91410919 -14.59301758 3.37269592 C-10.2493131 -0.37025425 -5.52455622 -1.33877283 0 0 Z " fill="#C6E4B9" transform="translate(156,161)"/>
<path d="M0 0 C4.99199271 2.95228271 8.78237979 6.57259357 12.7890625 10.734375 C14.0726507 12.04322963 15.35651289 13.35181561 16.640625 14.66015625 C18.64354847 16.71290614 20.64312197 18.76872428 22.63769531 20.82958984 C24.57528491 22.8274031 26.52497845 24.81274407 28.4765625 26.796875 C29.07143463 27.41866638 29.66630676 28.04045776 30.27920532 28.68109131 C31.77825426 30.19819913 33.38310787 31.60916439 35 33 C36.32 33 37.64 33 39 33 C39.17015625 32.28714844 39.3403125 31.57429688 39.515625 30.83984375 C43.05465685 16.85313807 43.05465685 16.85313807 49.5 12.0625 C54.76905127 9.10357382 60.13033694 9.02172282 66 10 C71.70205242 12.18455255 75.08088291 15.62882455 78 21 C79.83329441 26.49988323 79.80919559 31.9086172 77.4375 37.25 C74.60238327 42.21886312 70.89300656 45.1074767 65.4296875 46.79296875 C63.67988399 47.2546516 61.92989206 47.71562108 60.1796875 48.17578125 C57.70678128 48.89731009 57.70678128 48.89731009 55.875 51.6875 C55.58625 52.450625 55.2975 53.21375 55 54 C55.59659424 54.2587793 56.19318848 54.51755859 56.80786133 54.78417969 C59.18315096 56.10158055 60.36955752 57.35549821 62.07421875 59.453125 C67.09741172 65.38926017 72.70315179 70.73550953 78.26147461 76.16552734 C79.66435754 77.53819726 81.06078699 78.91745296 82.45703125 80.296875 C83.28178955 81.10479492 84.10654785 81.91271484 84.95629883 82.74511719 C87.91960567 86.01463122 88.91242172 88.03663889 89.3125 92.4375 C88.80779119 98.1911804 85.83227735 101.42052322 81.8046875 105.35546875 C81.00675781 106.14244141 80.20882812 106.92941406 79.38671875 107.74023438 C78.55785156 108.54783203 77.72898437 109.35542969 76.875 110.1875 C75.22439068 111.80377461 73.57584351 113.42215874 71.9296875 115.04296875 C70.83503174 116.11067505 70.83503174 116.11067505 69.71826172 117.19995117 C67.92815362 118.89861352 67.92815362 118.89861352 67 121 C66.34 121 65.68 121 65 121 C64.01 122.98 64.01 122.98 63 125 C62.34 125 61.68 125 61 125 C60.6596875 125.86625 60.6596875 125.86625 60.3125 126.75 C58.66961977 129.5663661 56.60466773 131.08077114 54 133 C52.1875 132.4375 52.1875 132.4375 50 131 C48.50394383 128.00788767 47.3494026 125.12490593 46.359375 121.9375 C44.61364388 116.57851145 42.7273395 114.15155967 38 111 C32.9393568 108.52590777 28.37130812 108.68851364 23 110 C18.71629455 112.10144041 15.89901583 114.57335142 13.6953125 118.87890625 C11.87703868 124.4256629 11.94574551 130.67000719 14.5625 135.9375 C18.99286227 141.50385259 24.35104748 143.32433329 30.984375 145.19140625 C33.23764159 146.09533296 34.41385318 147.18797784 36 149 C34.81183712 153.15857007 32.98863022 155.05472521 29.58984375 157.6640625 C27.90201544 159.08233592 26.61596974 160.58578454 25.25 162.3125 C24.5075 163.199375 23.765 164.08625 23 165 C22.34 165 21.68 165 21 165 C20.7321167 165.59095459 20.4642334 166.18190918 20.18823242 166.79077148 C18.2133958 170.46249875 15.23816426 173.13074695 12.3125 176.0625 C11.71244141 176.68705078 11.11238281 177.31160156 10.49414062 177.95507812 C6.06669436 182.41105787 2.01492526 185.65170207 -4.4765625 186.21484375 C-12.20439803 185.21725044 -15.57565239 181.61312895 -20.390625 175.79296875 C-22.02261644 173.97480352 -23.73207913 172.47853174 -25.625 170.9375 C-28.7971854 168.33127719 -30.7908057 165.47159104 -33 162 C-33.99 161.34 -34.98 160.68 -36 160 C-37.03013277 158.35178756 -38.03114628 156.68496298 -39 155 C-39.99 154.01 -39.99 154.01 -41 153 C-41.125 150.375 -41.125 150.375 -41 148 C-37.62902617 146.50178941 -35.79557881 146 -32 146 C-32 145.34 -32 144.68 -32 144 C-30.33303379 141.98209353 -28.80758637 140.8941725 -26.5 139.625 C-22.8497073 137.25230974 -21.52785922 135.00443838 -20.421875 130.8046875 C-19.23428029 123.78908169 -20.91544017 118.77284456 -25 113 C-30.35187809 108.69239081 -36.37710935 108.56005933 -43 109 C-48.01356896 110.13944749 -50.05468061 112.99109306 -53 117 C-53.495 118.485 -53.495 118.485 -54 120 C-54.66 120 -55.32 120 -56 120 C-56.268125 121.27875 -56.53625 122.5575 -56.8125 123.875 C-57.57190099 127.49675855 -57.70077803 127.80051868 -61 130 C-61.99 130 -62.98 130 -64 130 C-64 129.34 -64 128.68 -64 128 C-64.99 128 -65.98 128 -67 128 C-67.0928125 127.071875 -67.0928125 127.071875 -67.1875 126.125 C-67.455625 125.42375 -67.72375 124.7225 -68 124 C-69.10408203 123.57267578 -69.10408203 123.57267578 -70.23046875 123.13671875 C-73.49293761 121.79768005 -75.52146549 120.05615907 -78.125 117.6875 C-78.97320312 116.92824219 -79.82140625 116.16898437 -80.6953125 115.38671875 C-82.94245046 113.05959792 -84.38242293 110.78050969 -86 108 C-86.66 107.67 -87.32 107.34 -88 107 C-88 106.34 -88 105.68 -88 105 C-88.928125 104.979375 -89.85625 104.95875 -90.8125 104.9375 C-94 104 -94 104 -95.875 100.9375 C-97.20425731 96.9578333 -98.08616771 93.11838589 -97 89 C-95.01151527 85.6755021 -92.77288303 82.71014812 -90 80 C-89.34 80 -88.68 80 -88 80 C-87.7525 79.4225 -87.505 78.845 -87.25 78.25 C-85.81700012 75.67060021 -84.21575324 73.93878408 -82 72 C-81.34 72 -80.68 72 -80 72 C-79.7525 71.4225 -79.505 70.845 -79.25 70.25 C-77.81700012 67.67060021 -76.21575324 65.93878408 -74 64 C-73.34 64 -72.68 64 -72 64 C-72 63.34 -72 62.68 -72 62 C-70.89121049 61.03885609 -69.73725649 60.1292946 -68.5625 59.25 C-65.80579428 56.98238723 -65.08756767 56.30356791 -64.0625 52.75 C-64.02652133 51.16693841 -64 49.58347039 -64 48 C-65.155 47.9175 -66.31 47.835 -67.5 47.75 C-73.44664938 46.99085327 -78.17976841 44.86813242 -82.375 40.5625 C-85.80764793 35.14947827 -87.01136382 30.37691503 -86 24 C-83.8975395 18.5336027 -80.34556141 14.67046427 -75.234375 11.85546875 C-71.0585264 10.25667357 -67.36164237 10.03747707 -63 11 C-55.27443883 14.70779248 -51.47312199 19.39115614 -48.3125 27.25 C-47.87550781 28.32765625 -47.43851562 29.4053125 -46.98828125 30.515625 C-46.49908203 31.74539062 -46.49908203 31.74539062 -46 33 C-43.0449856 32.66036795 -43.0449856 32.66036795 -40 32 C-38.56362302 30.04836882 -38.56362302 30.04836882 -38 28 C-37.34 28 -36.68 28 -36 28 C-35.34 26.68 -34.68 25.36 -34 24 C-33.34 24 -32.68 24 -32 24 C-31.62875 23.13375 -31.62875 23.13375 -31.25 22.25 C-29.81700012 19.67060021 -28.21575324 17.93878408 -26 16 C-25.34 16 -24.68 16 -24 16 C-23.79375 15.443125 -23.5875 14.88625 -23.375 14.3125 C-21.83165928 11.71688152 -19.94143369 10.21711378 -17.5859375 8.3671875 C-15.93831246 6.94682109 -14.65869623 5.4551819 -13.3125 3.75 C-9.80654781 -0.41924044 -5.24950727 -1.00209508 0 0 Z " fill="#ECC3AA" transform="translate(352,160)"/>
<path d="M0 0 C0.33 0 0.66 0 1 0 C3.10110568 14.66953785 3.10110568 14.66953785 -0.375 19.75 C-5.61033364 25.34974202 -12.74892287 26.09361536 -20 27 C-20.33 27.33 -20.66 27.66 -21 28 C-21.0615942 31.41136476 -21.0615942 31.41136476 -20 35 C-17.02236957 37.26325246 -17.02236957 37.26325246 -14 39 C-14 39.99 -14 40.98 -14 42 C-13.43667969 42.08378906 -12.87335938 42.16757813 -12.29296875 42.25390625 C-9.30161722 43.2272421 -7.62709599 44.82184449 -5.3125 46.9375 C-4.52488281 47.64777344 -3.73726562 48.35804688 -2.92578125 49.08984375 C-1 51 -1 51 0 53 C1.485 53.495 1.485 53.495 3 54 C3.6875 56.0625 3.6875 56.0625 4 58 C4.66 58 5.32 58 6 58 C6.33 58.66 6.66 59.32 7 60 C7.99 60.33 8.98 60.66 10 61 C10 61.66 10 62.32 10 63 C10.99 63 11.98 63 13 63 C13 63.66 13 64.32 13 65 C8.16592748 64.58565093 6.10462326 62.62206046 3 59 C2.67 58.01 2.34 57.02 2 56 C1.13181641 55.81050781 1.13181641 55.81050781 0.24609375 55.6171875 C-3.07321639 54.7050988 -4.60250249 52.60750891 -6.9375 50.125 C-10.12449066 46.74590326 -13.03011457 44.37198879 -17 42 C-17 41.34 -17 40.68 -17 40 C-17.66 40 -18.32 40 -19 40 C-22.5111213 37.24126183 -23.88059857 35.86566035 -24.5 31.375 C-24 28 -24 28 -22.875 26.1875 C-20.35643847 24.59241103 -17.8556464 23.86208193 -15 23 C-9.63943717 21.61628484 -9.63943717 21.61628484 -6 18 C-5.34 18 -4.68 18 -4 18 C-3.67 16.68 -3.34 15.36 -3 14 C-2.34 14 -1.68 14 -1 14 C-0.67 9.38 -0.34 4.76 0 0 Z " fill="#DADBD7" transform="translate(234,182)"/>
<path d="M0 0 C4.29 0 8.58 0 13 0 C13 0.66 13 1.32 13 2 C14.11375 2.1546875 14.11375 2.1546875 15.25 2.3125 C18.42727184 3.10681796 19.79160927 3.56315506 22 6 C22.93094992 8.96115707 23.5120275 11.9373305 24 15 C24.66 15 25.32 15 26 15 C26 16.98 26 18.96 26 21 C27.65 21 29.3 21 31 21 C31 20.34 31 19.68 31 19 C32.32 18.67 33.64 18.34 35 18 C35 17.34 35 16.68 35 16 C36.64453125 14.37890625 36.64453125 14.37890625 38.8125 12.5625 C41.82463265 10.02660668 41.82463265 10.02660668 44.63671875 7.27734375 C46 6 46 6 48 6 C48.33 5.01 48.66 4.02 49 3 C49.66 3.33 50.32 3.66 51 4 C47.20140438 9.22306897 42.24493391 14.91835536 36 17 C36 17.66 36 18.32 36 19 C35.34 19 34.68 19 34 19 C33.505 20.485 33.505 20.485 33 22 C30.04335481 23.4783226 27.25770263 23.06032783 24 23 C23.84144531 22.19175781 23.68289062 21.38351562 23.51953125 20.55078125 C22.11510922 14.11837315 21.14828493 10.17428508 16 6 C16 5.34 16 4.68 16 4 C10.72 3.01 5.44 2.02 0 1 C0 0.67 0 0.34 0 0 Z " fill="#BEE6D1" transform="translate(180,269)"/>
<path d="M0 0 C0.86625 -0.00257813 1.7325 -0.00515625 2.625 -0.0078125 C5 0.125 5 0.125 8 1.125 C7.67 1.785 7.34 2.445 7 3.125 C5.68 2.795 4.36 2.465 3 2.125 C2.67 2.785 2.34 3.445 2 4.125 C2 3.465 2 2.805 2 2.125 C-3.76255052 2.29383906 -6.25522844 3.71638984 -10.23632812 7.83398438 C-11.0784082 8.75147461 -11.0784082 8.75147461 -11.9375 9.6875 C-12.52595703 10.30302734 -13.11441406 10.91855469 -13.72070312 11.55273438 C-15.16121864 13.06351894 -16.58260249 14.59250555 -18 16.125 C-18.33 15.465 -18.66 14.805 -19 14.125 C-17.92027262 12.7055831 -16.83604137 11.2895917 -15.75 9.875 C-14.84507812 8.69164062 -14.84507812 8.69164062 -13.921875 7.484375 C-9.61613443 2.19846585 -6.94619714 -0.02067321 0 0 Z M-20 16.125 C-20 17.115 -20 18.105 -20 19.125 C-20.66 18.795 -21.32 18.465 -22 18.125 C-21.34 17.465 -20.68 16.805 -20 16.125 Z M-24 19.125 C-23.34 19.455 -22.68 19.785 -22 20.125 C-24.21659761 22.4291126 -26.4503173 24.7158834 -28.6875 27 C-29.62625977 27.97646484 -29.62625977 27.97646484 -30.58398438 28.97265625 C-33.8281834 32.26781128 -36.40544013 34.87752868 -41 36.125 C-41 35.465 -41 34.805 -41 34.125 C-41.66 33.795 -42.32 33.465 -43 33.125 C-41.865625 32.83625 -40.73125 32.5475 -39.5625 32.25 C-38.386875 31.87875 -37.21125 31.5075 -36 31.125 C-35.67 30.465 -35.34 29.805 -35 29.125 C-34.34 29.125 -33.68 29.125 -33 29.125 C-33 28.465 -33 27.805 -33 27.125 C-31.28515625 25.43359375 -31.28515625 25.43359375 -29.0625 23.5625 C-28.33160156 22.94246094 -27.60070312 22.32242187 -26.84765625 21.68359375 C-26.23792969 21.16925781 -25.62820312 20.65492188 -25 20.125 C-24.67 19.795 -24.34 19.465 -24 19.125 Z " fill="#B5E0DD" transform="translate(249,258.875)"/>
<path d="M0 0 C1.43836751 0.11458693 2.87570966 0.24209116 4.3125 0.375 C5.51326172 0.47941406 5.51326172 0.47941406 6.73828125 0.5859375 C9 1 9 1 12 3 C12.51182889 6.32688777 12.72509359 8.79151069 10.9453125 11.7578125 C9.16285206 13.94106287 7.54010466 15.72994767 5 17 C4.62875 17.70125 4.2575 18.4025 3.875 19.125 C0.77831429 23.87325142 -3.56685257 28.18895086 -9 30 C-9.4640625 31.2375 -9.4640625 31.2375 -9.9375 32.5 C-10.288125 33.325 -10.63875 34.15 -11 35 C-13.06640625 35.65625 -13.06640625 35.65625 -15 36 C-14.23286356 34.89326166 -13.46110997 33.78972306 -12.6875 32.6875 C-12.25824219 32.07261719 -11.82898438 31.45773437 -11.38671875 30.82421875 C-10.03400172 29.04472902 -8.59657177 27.56037745 -7 26 C-5.82274306 24.69699061 -4.65655702 23.38391712 -3.5 22.0625 C-2.9121875 21.39347656 -2.324375 20.72445313 -1.71875 20.03515625 C0.02961276 18.01420549 0.02961276 18.01420549 1.59375 15.8125 C3.21592542 13.72169612 4.63110016 13.1104218 7 12 C8.79252059 10.70790088 8.79252059 10.70790088 10 9 C10 7.68 10 6.36 10 5 C9.36191406 4.80664062 8.72382813 4.61328125 8.06640625 4.4140625 C7.24011719 4.15367187 6.41382813 3.89328125 5.5625 3.625 C4.73878906 3.36976563 3.91507813 3.11453125 3.06640625 2.8515625 C1 2 1 2 0 0 Z " fill="#BDE5CC" transform="translate(177,304)"/>
<path d="M0 0 C0.495 1.485 0.495 1.485 1 3 C-0.39973958 4.13932292 -1.79947917 5.27864583 -3.19921875 6.41796875 C-5.01555246 8.01366322 -6.72327498 9.69149308 -8.4230957 11.40991211 C-10.40044357 13.40379145 -12.39598817 15.37888674 -14.390625 17.35546875 C-16.01047605 18.96608612 -17.6302662 20.57676472 -19.25 22.1875 C-20.07757813 23.00669922 -20.90515625 23.82589844 -21.7578125 24.66992188 C-22.54414063 25.45302734 -23.33046875 26.23613281 -24.140625 27.04296875 C-24.85766602 27.75477295 -25.57470703 28.46657715 -26.31347656 29.19995117 C-28.9255369 31.9878378 -29.13722537 33.71487536 -29.125 37.4375 C-29.12757813 38.21996094 -29.13015625 39.00242188 -29.1328125 39.80859375 C-28.96480706 42.58068355 -28.55839642 44.44160358 -26.5625 46.4375 C-24.84627918 48.15372082 -23.98686774 49.79852582 -23 52 C-27.83577878 49.96442645 -29.86276122 46.67308956 -32 42 C-32.73926528 36.64032673 -31.69220617 33.60553948 -29 29 C-26.92715251 26.5445408 -24.66289974 24.31239422 -22.36328125 22.0703125 C-21.72384079 21.43511688 -21.08440033 20.79992126 -20.42558289 20.14547729 C-18.39486036 18.1314589 -16.35392593 16.12816273 -14.3125 14.125 C-12.92834728 12.75590474 -11.54487609 11.38612009 -10.16210938 10.015625 C-6.78257653 6.66905173 -3.39384951 3.33205096 0 0 Z " fill="#EBCFF4" transform="translate(189,117)"/>
<path d="M0 0 C4.76098993 5.09218923 7 10.06419108 7 17 C6.5186606 19.45810216 5.8403016 21.62738371 5 24 C3.71241552 20.13724657 3.97454727 16.73173456 4.0625 12.69140625 C4.00619427 10.26674056 3.69885031 8.3094819 3 6 C1.68 6 0.36 6 -1 6 C-1.33 4.68 -1.66 3.36 -2 2 C-8.117834 0.38014797 -13.68400461 -0.22828899 -20 0 C-20.99 0 -21.98 0 -23 0 C-17.55335915 -5.44664085 -6.03050988 -4.00344774 0 0 Z " fill="#D8E4E0" transform="translate(326,271)"/>
<path d="M0 0 C0.33 0 0.66 0 1 0 C1.14695312 1.19496094 1.14695312 1.19496094 1.296875 2.4140625 C2.40992974 10.9362191 2.40992974 10.9362191 7 18 C11.94625112 21.29750075 17.24070624 22.76586562 23 24 C23.9375 26.5 23.9375 26.5 24 30 C22.02549462 33.02685165 19.72144232 35.62250937 17 38 C16.34 38 15.68 38 15 38 C15 38.66 15 39.32 15 40 C14.34 39.67 13.68 39.34 13 39 C18 34 18 34 19.8125 32.5 C21.51035354 30.3553429 21.21486964 28.65005894 21 26 C20.443125 25.92523438 19.88625 25.85046875 19.3125 25.7734375 C11.74259047 24.46916255 7.07972916 21.16120348 1.78515625 15.7265625 C-0.45804129 12.30040959 -0.4138013 10.24158215 -0.25 6.1875 C-0.21390625 5.02605469 -0.1778125 3.86460937 -0.140625 2.66796875 C-0.07101562 1.34732422 -0.07101562 1.34732422 0 0 Z " fill="#F4CAE1" transform="translate(265,184)"/>
<path d="M0 0 C1.16516703 3.39451994 0.83093313 5.34075897 -0.375 8.6875 C-0.65085937 9.47511719 -0.92671875 10.26273437 -1.2109375 11.07421875 C-2 13 -2 13 -3 14 C-9.80820981 14.11539339 -9.80820981 14.11539339 -12.828125 11.2890625 C-15.37337055 7.96541661 -17.18935293 5.14641317 -18 1 C-15.0625 2.25 -15.0625 2.25 -12 4 C-11.125 6.1875 -11.125 6.1875 -11 8 C-10.01 8 -9.02 8 -8 8 C-8 8.66 -8 9.32 -8 10 C-6.02 9.34 -4.04 8.68 -2 8 C-1.7834375 6.576875 -1.7834375 6.576875 -1.5625 5.125 C-1 2 -1 2 0 0 Z " fill="#C0D9D7" transform="translate(296,280)"/>
<path d="M0 0 C-2.96687001 1.64826111 -5.65626525 2.44271087 -9 3 C-7.88194029 6.87020669 -6.9704892 9.28781421 -4 12 C-3.67 12.99 -3.34 13.98 -3 15 C-1.7625 16.2375 -1.7625 16.2375 -0.5 17.5 C2 20 2 20 3 23 C2.01 22.67 1.02 22.34 0 22 C0 21.34 0 20.68 0 20 C-0.8971875 19.690625 -0.8971875 19.690625 -1.8125 19.375 C-4 18 -4 18 -5.375 15.0625 C-7.35284429 11.33502423 -9.1550652 10.53797392 -13 9 C-13.3125 6.1875 -13.3125 6.1875 -13 3 C-9.04892571 -0.70413214 -5.10391767 -0.25952124 0 0 Z " fill="#C9D8D2" transform="translate(320,305)"/>
<path d="M0 0 C0.66 0.33 1.32 0.66 2 1 C0.44000455 5.21198772 -2.55248619 7.27071823 -6 10 C-6.66 10.66 -7.32 11.32 -8 12 C-9.03837715 12.88303215 -10.08197505 13.75993912 -11.12890625 14.6328125 C-15.27902754 18.17284336 -19.10688279 21.99551329 -22.9375 25.875 C-23.62134766 26.56335938 -24.30519531 27.25171875 -25.00976562 27.9609375 C-26.67551464 29.63833511 -28.3388622 31.31803791 -30 33 C-30 30 -30 30 -28.86108398 28.50032043 C-28.32813721 27.97403549 -27.79519043 27.44775055 -27.24609375 26.90551758 C-26.34515991 26.00492363 -26.34515991 26.00492363 -25.42602539 25.08613586 C-24.76981201 24.44540634 -24.11359863 23.80467682 -23.4375 23.14453125 C-22.77161865 22.48289474 -22.1057373 21.82125824 -21.41967773 21.13957214 C-19.28670621 19.0234226 -17.1435509 16.91792734 -15 14.8125 C-13.55400575 13.38154797 -12.10868429 11.94991572 -10.6640625 10.51757812 C-7.1171401 7.00377176 -3.56104822 3.49948754 0 0 Z " fill="#CCE1C2" transform="translate(143,163)"/>
<path d="M0 0 C3.18283344 1.43048694 5.57915658 3.19017243 8.1875 5.5 C8.88230469 6.1084375 9.57710937 6.716875 10.29296875 7.34375 C12 9 12 9 13 11 C13.99 11.33 14.98 11.66 16 12 C16.6875 14.0625 16.6875 14.0625 17 16 C17.66 16 18.32 16 19 16 C19.33 16.66 19.66 17.32 20 18 C20.99 18.33 21.98 18.66 23 19 C23 19.66 23 20.32 23 21 C23.99 21 24.98 21 26 21 C26 21.66 26 22.32 26 23 C21.16592748 22.58565093 19.10462326 20.62206046 16 17 C15.67 16.01 15.34 15.02 15 14 C14.42636719 13.87367188 13.85273438 13.74734375 13.26171875 13.6171875 C9.89611678 12.69876762 8.23147832 10.59042842 5.8125 8.125 C4.93207031 7.24070313 4.05164063 6.35640625 3.14453125 5.4453125 C1 3 1 3 0 0 Z " fill="#EACFEF" transform="translate(221,224)"/>
<path d="M0 0 C2.475 0.495 2.475 0.495 5 1 C0.375 5 0.375 5 -3 5 C-3.144375 5.804375 -3.28875 6.60875 -3.4375 7.4375 C-4 10 -4 10 -5 11 C-5.36760731 13.32817964 -5.70241581 15.6618385 -6 18 C-6.66 18 -7.32 18 -8 18 C-8 19.98 -8 21.96 -8 24 C-10.70879335 25.35439668 -13.00933268 25.06501451 -16 25 C-16.33 24.01 -16.66 23.02 -17 22 C-15.02 22.33 -13.04 22.66 -11 23 C-9.548411 18.73232833 -8.10341635 14.48086349 -6.9375 10.125 C-6 7 -6 7 -4 4 C-3.34 4 -2.68 4 -2 4 C-1.34 2.68 -0.68 1.36 0 0 Z " fill="#D6DACE" transform="translate(205,171)"/>
<path d="M0 0 C0.66 0.99 1.32 1.98 2 3 C0.91015771 7.15933483 -1.41698056 10.03667003 -4.125 13.3125 C-4.84945312 14.19550781 -5.57390625 15.07851563 -6.3203125 15.98828125 C-7.15175781 16.98408203 -7.15175781 16.98408203 -8 18 C-8.66 17.67 -9.32 17.34 -10 17 C-8.625 14.5 -8.625 14.5 -7 12 C-6.34 12 -5.68 12 -5 12 C-4.71125 11.38125 -4.4225 10.7625 -4.125 10.125 C-3 8 -3 8 -1 6 C-0.60235737 4.01178687 -0.26224651 2.01055661 0 0 Z M-12 18 C-11.34 18.33 -10.68 18.66 -10 19 C-13.96 22.96 -17.92 26.92 -22 31 C-22 28 -22 28 -19.8125 25.625 C-18.884375 24.75875 -17.95625 23.8925 -17 23 C-16.071875 22.071875 -15.14375 21.14375 -14.1875 20.1875 C-13.1046875 19.1046875 -13.1046875 19.1046875 -12 18 Z M-25 31 C-24.34 31.33 -23.68 31.66 -23 32 C-24.98 33.32 -26.96 34.64 -29 36 C-27.25 32.125 -27.25 32.125 -25 31 Z " fill="#B3E1DE" transform="translate(189,308)"/>
<path d="M0 0 C1.92578125 1.08984375 1.92578125 1.08984375 4.67578125 3.08984375 C3.68578125 3.41984375 2.69578125 3.74984375 1.67578125 4.08984375 C0.83015625 3.61546875 -0.01546875 3.14109375 -0.88671875 2.65234375 C-5.45834147 0.57433342 -9.38376502 0.8262227 -14.32421875 1.08984375 C-14.65421875 2.07984375 -14.98421875 3.06984375 -15.32421875 4.08984375 C-16.46890625 4.77046875 -16.46890625 4.77046875 -17.63671875 5.46484375 C-20.64061827 7.28115509 -22.26965467 9.27433001 -24.32421875 12.08984375 C-25.32421875 9.08984375 -25.32421875 9.08984375 -24.38671875 6.71484375 C-18.37137658 -0.94104628 -9.29092414 -3.63829466 0 0 Z " fill="#E4C5B3" transform="translate(420.32421875,170.91015625)"/>
<path d="M0 0 C0.66 0.33 1.32 0.66 2 1 C1.23333008 1.76143311 0.46666016 2.52286621 -0.32324219 3.30737305 C-3.1809572 6.14691765 -6.0353039 8.98982802 -8.88867188 11.83374023 C-10.12148644 13.06154204 -11.3551991 14.28844279 -12.58984375 15.5144043 C-14.36958835 17.28194904 -16.1460231 19.05276407 -17.921875 20.82421875 C-18.46994812 21.36713058 -19.01802124 21.91004242 -19.58270264 22.46940613 C-22.61237236 25.49863599 -25.38813588 28.59190304 -28 32 C-28 28 -28 28 -25.4296875 24.97558594 C-24.25500694 23.80153847 -23.06932076 22.63843731 -21.875 21.484375 C-21.25351074 20.86854553 -20.63202148 20.25271606 -19.99169922 19.6182251 C-18.00364946 17.65257397 -16.00214837 15.70127883 -14 13.75 C-12.65013262 12.42019297 -11.30116252 11.08947445 -9.953125 9.7578125 C-6.64573748 6.4945387 -3.32621797 3.24407353 0 0 Z " fill="#CCE0C2" transform="translate(90,216)"/>
<path d="M0 0 C1.27617187 0.02320313 2.55234375 0.04640625 3.8671875 0.0703125 C5.78917969 0.09738281 5.78917969 0.09738281 7.75 0.125 C9.23113281 0.15980469 9.23113281 0.15980469 10.7421875 0.1953125 C11.0309375 1.00742188 11.3196875 1.81953125 11.6171875 2.65625 C11.9884375 3.49414062 12.3596875 4.33203125 12.7421875 5.1953125 C14.72264309 5.85711097 14.72264309 5.85711097 16.7421875 6.1953125 C18.7421875 9.1953125 18.7421875 9.1953125 18.7421875 12.1953125 C18.0821875 12.1953125 17.4221875 12.1953125 16.7421875 12.1953125 C16.3090625 11.4321875 15.8759375 10.6690625 15.4296875 9.8828125 C13.44617028 6.72387767 12.07134639 5.83708949 8.7421875 4.1953125 C5.17257656 3.41045353 5.17257656 3.41045353 1.4296875 3.0078125 C0.17542969 2.84925781 -1.07882813 2.69070312 -2.37109375 2.52734375 C-3.32371094 2.41777344 -4.27632812 2.30820313 -5.2578125 2.1953125 C-3.2578125 0.1953125 -3.2578125 0.1953125 0 0 Z " fill="#E9DBE9" transform="translate(215.2578125,169.8046875)"/>
<path d="M0 0 C0.33 0 0.66 0 1 0 C3.10276573 14.68112798 3.10276573 14.68112798 -0.5625 19.8125 C-3.33142838 22.80190511 -5.94179393 24.22700837 -10 25 C-10 24.34 -10 23.68 -10 23 C-9.34 23 -8.68 23 -8 23 C-7.34 21.35 -6.68 19.7 -6 18 C-5.34 18 -4.68 18 -4 18 C-3.67 16.68 -3.34 15.36 -3 14 C-2.34 14 -1.68 14 -1 14 C-0.67 9.38 -0.34 4.76 0 0 Z " fill="#EAD4EF" transform="translate(234,182)"/>
<path d="M0 0 C0.69029297 -0.02900391 1.38058594 -0.05800781 2.09179688 -0.08789062 C7.23206553 -0.15123043 10.23526484 0.88259612 14.0625 4.3125 C14.9375 7.0625 14.9375 7.0625 15.0625 9.3125 C14.38445312 8.8071875 13.70640625 8.301875 13.0078125 7.78125 C7.42630593 3.88501827 3.28024246 1.35919944 -3.6328125 1.8671875 C-7.07144819 2.53160185 -9.83443241 3.69350822 -12.9375 5.3125 C-12.9375 3.9925 -12.9375 2.6725 -12.9375 1.3125 C-8.6346464 0.28082165 -4.40525563 0.06135454 0 0 Z " fill="#F6CDE4" transform="translate(284.9375,169.6875)"/>
<path d="M0 0 C0.66 0 1.32 0 2 0 C2.33 0.99 2.66 1.98 3 3 C2.01 3 1.02 3 0 3 C0 3.66 0 4.32 0 5 C-1.70218367 6.49381291 -3.46322891 7.92097016 -5.25 9.3125 C-9.06153731 12.28207074 -12.06032325 15.17068424 -15 19 C-17.25 20.8125 -17.25 20.8125 -19 22 C-19.66 21.67 -20.32 21.34 -21 21 C-20.0479279 19.99403703 -19.08812654 18.99538437 -18.125 18 C-17.59132813 17.443125 -17.05765625 16.88625 -16.5078125 16.3125 C-15 15 -15 15 -13 15 C-12.79375 14.443125 -12.5875 13.88625 -12.375 13.3125 C-10.83254938 10.7183785 -8.94467012 9.21925821 -6.58984375 7.37109375 C-4.92105544 5.93191759 -3.61754078 4.41214341 -2.25 2.6875 C-1.5075 1.800625 -0.765 0.91375 0 0 Z " fill="#ECC4BD" transform="translate(341,161)"/>
<path d="M0 0 C2.69600373 0.9885347 3.80558649 1.65977636 5.25 4.1875 C6.63045467 9.364205 6.66328735 13.26258072 4 17.9375 C3.34 18.948125 2.68 19.95875 2 21 C1.67 21 1.34 21 1 21 C1 19.35 1 17.7 1 16 C1.99 16 2.98 16 4 16 C4 14.02 4 12.04 4 10 C2.68 9.34 1.36 8.68 0 8 C0.66 7.67 1.32 7.34 2 7 C1.34 4.69 0.68 2.38 0 0 Z " fill="#B2DDE0" transform="translate(336,341)"/>
<path d="M0 0 C0.66 0.33 1.32 0.66 2 1 C-3.05376308 6.05376308 -7.47310768 8.15719359 -14.328125 10.140625 C-17.18284694 10.92451945 -17.18284694 10.92451945 -20 13 C-18.48078522 8.74619862 -15.86890976 7.14939431 -12 5 C-10.63644631 4.60404499 -9.26002701 4.25016468 -7.875 3.9375 C-4.34411732 3.08325419 -2.62093855 2.402527 0 0 Z " fill="#E7C9F2" transform="translate(328,101)"/>
<path d="M0 0 C7.67977716 0.34132343 12.48765464 2.09503966 17.8125 7.875 C20.07381725 11.10545321 20.72233641 13.11270969 21 17 C20.34 17.33 19.68 17.66 19 18 C17.50178941 14.62902617 17 12.79557881 17 9 C16.360625 8.71125 15.72125 8.4225 15.0625 8.125 C13 7 13 7 12 5 C10.00708223 4.21655744 7.97948177 3.51983635 5.9375 2.875 C4.83277344 2.52179688 3.72804687 2.16859375 2.58984375 1.8046875 C1.73519531 1.53914063 0.88054687 1.27359375 0 1 C0 0.67 0 0.34 0 0 Z " fill="#E8CDF2" transform="translate(184,72)"/>
<path d="M0 0 C1.32 0.33 2.64 0.66 4 1 C3.236875 1.70125 2.47375 2.4025 1.6875 3.125 C-3.66043585 8.84604766 -4.31836952 13.20108873 -4.10546875 20.8046875 C-4.05326172 21.89136719 -4.05326172 21.89136719 -4 23 C-7.58050131 18.82744729 -7.26656798 16.33135955 -7 11 C-6.34 11 -5.68 11 -5 11 C-4.9175 9.88625 -4.835 8.7725 -4.75 7.625 C-4 4 -4 4 -1.9375 2.5625 C-0.9784375 2.2840625 -0.9784375 2.2840625 0 2 C0 1.34 0 0.68 0 0 Z " fill="#C5EBD4" transform="translate(172,272)"/>
<path d="M0 0 C0.66 0.33 1.32 0.66 2 1 C1.4946875 1.54527344 0.989375 2.09054688 0.46875 2.65234375 C-4.25666547 8.12748597 -4.25666547 8.12748597 -5.4375 15.0625 C-5.293125 16.361875 -5.14875 17.66125 -5 19 C-4.34 19 -3.68 19 -3 19 C-3 19.99 -3 20.98 -3 22 C-2.01 22.33 -1.02 22.66 0 23 C0 23.66 0 24.32 0 25 C-1.8125 24.9375 -1.8125 24.9375 -4 24 C-6.66708017 19.3326097 -8.44022006 14.38602845 -7 9 C-4.95219773 5.7296292 -2.58994029 2.85421991 0 0 Z " fill="#DFC6BC" transform="translate(262,240)"/>
<path d="M0 0 C1.12025107 3.33027019 0.89423549 5.36541892 -0.1875 8.6875 C-0.42855469 9.47511719 -0.66960937 10.26273438 -0.91796875 11.07421875 C-2 13 -2 13 -3.953125 13.875 C-6 14 -6 14 -8.5625 12.3125 C-10.67296754 10.31026156 -12.37174185 8.39953833 -14 6 C-13.67 5.34 -13.34 4.68 -13 4 C-12.52949219 4.42152344 -12.05898437 4.84304687 -11.57421875 5.27734375 C-10.64029297 6.09912109 -10.64029297 6.09912109 -9.6875 6.9375 C-9.07261719 7.48277344 -8.45773438 8.02804688 -7.82421875 8.58984375 C-5.94758042 10.20081559 -5.94758042 10.20081559 -3 11 C-2.87625 10.113125 -2.7525 9.22625 -2.625 8.3125 C-2.05587264 5.29612498 -1.23385564 2.79673946 0 0 Z " fill="#E7D2ED" transform="translate(197,181)"/>
<path d="M0 0 C0.66 0 1.32 0 2 0 C2 0.66 2 1.32 2 2 C2.5775 2.20625 3.155 2.4125 3.75 2.625 C6.80653619 4.49288323 8.02052815 7.03079223 10 10 C11.91506373 11.81600871 13.9070621 13.38272981 16 15 C11.08347108 15 8.39965635 11.30044459 5 8 C0 2.70095694 0 2.70095694 0 0 Z " fill="#CBD2CD" transform="translate(262,265)"/>
<path d="M0 0 C4.875 1.75 4.875 1.75 6 4 C6.99 4.33 7.98 4.66 9 5 C9.33 5.99 9.66 6.98 10 8 C10.66 8.33 11.32 8.66 12 9 C12 9.66 12 10.32 12 11 C13.65 11.33 15.3 11.66 17 12 C15.02 12.99 15.02 12.99 13 14 C9.19395679 11.20143882 6.28808065 8.13069568 3.33203125 4.48828125 C2.04920055 2.87117455 2.04920055 2.87117455 0 2 C0 1.34 0 0.68 0 0 Z " fill="#D6C7B8" transform="translate(328,331)"/>
<path d="M0 0 C3 0 3 0 4.68359375 1.64453125 C5.26238281 2.35996094 5.84117187 3.07539063 6.4375 3.8125 C8.26036862 6.05132522 9.85752532 7.89359162 12.17578125 9.625 C14 11 14 11 14.75 13.1875 C14.87375 14.0846875 14.87375 14.0846875 15 15 C11.15776433 13.49055027 9.48004177 11.23156958 7 8 C6.13375 7.13375 5.2675 6.2675 4.375 5.375 C2 3 2 3 0 0 Z " fill="#E9D7EC" transform="translate(166,169)"/>
<path d="M0 0 C0.66 0.33 1.32 0.66 2 1 C1.01 2.485 1.01 2.485 0 4 C-0.66 4 -1.32 4 -2 4 C-2.4021875 4.8353125 -2.4021875 4.8353125 -2.8125 5.6875 C-4.1013363 8.19733911 -5.54865343 10.58108906 -7 13 C-7.68096422 14.32608822 -8.35330586 15.65686601 -9 17 C-9.86218933 11.39576938 -7.65492911 8.38048966 -4.60546875 3.953125 C-3 2 -3 2 0 0 Z " fill="#EBCAF6" transform="translate(177,74)"/>
<path d="M0 0 C6.38501163 -0.44807099 9.84177904 0.07975207 15 4 C16.4375 7.25 16.4375 7.25 17 10 C16.01 10.495 16.01 10.495 15 11 C14.443125 10.071875 13.88625 9.14375 13.3125 8.1875 C10.21322247 3.91552286 7.8324014 2.38030972 2.6875 1.3125 C1.800625 1.209375 0.91375 1.10625 0 1 C0 0.67 0 0.34 0 0 Z " fill="#B1DAE2" transform="translate(216,367)"/>
<path d="M0 0 C0.33 0 0.66 0 1 0 C0.88391305 4.84399196 0.78997303 8.04371686 -2.375 11.875 C-3.24125 12.57625 -4.1075 13.2775 -5 14 C-5.515625 14.61875 -6.03125 15.2375 -6.5625 15.875 C-7.2740625 16.431875 -7.2740625 16.431875 -8 17 C-10.1875 16.6875 -10.1875 16.6875 -12 16 C-10.26185942 14.07889725 -8.79211698 12.88566434 -6.5 11.625 C-2.74623714 9.18505414 -1.36293712 6.48474275 -0.3125 2.1875 C-0.209375 1.465625 -0.10625 0.74375 0 0 Z " fill="#DCCDC0" transform="translate(332,288)"/>
<path d="M0 0 C2 2 2 2 2.3125 5.8125 C2.18621709 9.70622316 1.51650555 11.91525126 -1 15 C-3.25647842 17.10103213 -5.58961018 19.07829195 -8 21 C-8 18 -8 18 -5.6875 15.5625 C-4.800625 14.716875 -3.91375 13.87125 -3 13 C-0.60086499 10.4354074 -0.03047437 9.4977481 0.1875 5.9375 C0.125625 4.968125 0.06375 3.99875 0 3 C0 2.01 0 1.02 0 0 Z " fill="#EFCAE8" transform="translate(341,149)"/>
<path d="M0 0 C2.69668415 1.6817503 4.84620215 3.67306727 7 6 C6.01 6.33 5.02 6.66 4 7 C4 6.34 4 5.68 4 5 C3.34 5 2.68 5 2 5 C2 4.34 2 3.68 2 3 C-2.455 2.01 -2.455 2.01 -7 1 C-7 1.66 -7 2.32 -7 3 C-7.99 3.33 -8.98 3.66 -10 4 C-10.33 3.01 -10.66 2.02 -11 1 C-7.48714862 -0.75642569 -3.82267227 -0.69106942 0 0 Z " fill="#CFDEC5" transform="translate(156,161)"/>
<path d="M0 0 C0.66 0.33 1.32 0.66 2 1 C0.71937515 2.7074998 -0.61767557 4.37373596 -2 6 C-2.66 6 -3.32 6 -4 6 C-3.896875 7.051875 -3.79375 8.10375 -3.6875 9.1875 C-4 13 -4 13 -6.5 15.9375 C-7.7375 16.9584375 -7.7375 16.9584375 -9 18 C-7.42748578 10.37192666 -5.53971375 5.53971375 0 0 Z " fill="#E8CCF3" transform="translate(303,75)"/>
<path d="M0 0 C1.98 0.66 3.96 1.32 6 2 C6 2.99 6 3.98 6 5 C6.66 5.33 7.32 5.66 8 6 C9.72718916 10.12606298 10.2120464 13.54702569 10 18 C8.61080689 15.43533581 7.6160459 12.87898273 6.6875 10.125 C5.17147844 5.95203344 3.00126447 3.24461024 0 0 Z " fill="#E2C1B1" transform="translate(391,270)"/>
<path d="M0 0 C0 4.61205904 -2.88770454 6.79993916 -6 10 C-8.2730396 12.07794837 -10.60438888 14.06508332 -13 16 C-13.66 15.67 -14.32 15.34 -15 15 C-10.05 10.05 -5.1 5.1 0 0 Z " fill="#EED1F7" transform="translate(230,76)"/>
<path d="M0 0 C0.66 0 1.32 0 2 0 C0.4614092 3.80736029 -1.87834716 5.93869545 -4.9375 8.625 C-6.25041016 9.78902344 -6.25041016 9.78902344 -7.58984375 10.9765625 C-10 13 -10 13 -13 15 C-11.60249952 11.84164893 -9.94801766 9.67727175 -7.5 7.25 C-6.8915625 6.63640625 -6.283125 6.0228125 -5.65625 5.390625 C-4 4 -4 4 -2 4 C-1.34 2.68 -0.68 1.36 0 0 Z " fill="#C1E6C4" transform="translate(232,267)"/>
<path d="M0 0 C1.37562854 1.28965176 2.70766393 2.62689293 4 4 C4 4.66 4 5.32 4 6 C4.66 6 5.32 6 6 6 C6.05410687 7.77049689 6.09284119 9.54146849 6.125 11.3125 C6.14820313 12.29863281 6.17140625 13.28476563 6.1953125 14.30078125 C6 17 6 17 4 20 C4.01160156 19.33613281 4.02320313 18.67226562 4.03515625 17.98828125 C4.11893409 11.43693213 4.11893409 11.43693213 3 5 C2.34 5 1.68 5 1 5 C0.67 3.35 0.34 1.7 0 0 Z " fill="#D2DACD" transform="translate(228,176)"/>
<path d="M0 0 C0.80179687 0.00451172 1.60359375 0.00902344 2.4296875 0.01367188 C4.41149006 0.02546832 6.39325433 0.04340395 8.375 0.0625 C8.705 1.0525 9.035 2.0425 9.375 3.0625 C8.1684375 2.815 8.1684375 2.815 6.9375 2.5625 C1.03518075 1.73410432 -4.81391148 1.56286425 -10.625 3.0625 C-10.625 2.4025 -10.625 1.7425 -10.625 1.0625 C-7.31505287 -0.59247356 -3.63377 -0.03834335 0 0 Z " fill="#E4C8B5" transform="translate(314.625,266.9375)"/>
<path d="M0 0 C3.82246588 0.55959523 5.58971741 2.21317357 8.25 4.9375 C8.95640625 5.64777344 9.6628125 6.35804688 10.390625 7.08984375 C12 9 12 9 12 11 C10.1875 10.8125 10.1875 10.8125 8 10 C6.95107762 8.36368108 5.95093297 6.69514137 5 5 C2.32357511 2.81509993 2.32357511 2.81509993 0 3 C0 2.01 0 1.02 0 0 Z " fill="#E5C5B4" transform="translate(427,236)"/>
<path d="M0 0 C1.65 0.33 3.3 0.66 5 1 C2.31158141 3.25245881 0.35358125 4.88213958 -3 6 C-4.37195574 7.29355827 -5.71182656 8.62298702 -7 10 C-6.1875 7.5625 -6.1875 7.5625 -5 5 C-4.01 4.67 -3.02 4.34 -2 4 C-0.79117904 1.99983534 -0.79117904 1.99983534 0 0 Z " fill="#E4D7E7" transform="translate(205,171)"/>
<path d="M0 0 C3.44428265 1.44781793 5.36130962 3.27694609 7.75 6.125 C8.36359375 6.84945312 8.9771875 7.57390625 9.609375 8.3203125 C10.29773438 9.15175781 10.29773438 9.15175781 11 10 C10.67 10.66 10.34 11.32 10 12 C8.51476358 10.56877218 7.03699538 9.12979111 5.5625 7.6875 C4.73878906 6.88699219 3.91507813 6.08648437 3.06640625 5.26171875 C1 3 1 3 0 0 Z " fill="#E6DAE8" transform="translate(221,224)"/>
<path d="M0 0 C3.68996811 2.29598016 6.73675646 4.22792744 9 8 C9 8.66 9 9.32 9 10 C8.01 9.67 7.02 9.34 6 9 C6 8.34 6 7.68 6 7 C5.38125 6.773125 4.7625 6.54625 4.125 6.3125 C1.38589791 4.62070165 0.94975528 3.00755839 0 0 Z " fill="#C2D7D7" transform="translate(314,318)"/>
<path d="M0 0 C0.33 0.99 0.66 1.98 1 3 C1.598125 3.12375 2.19625 3.2475 2.8125 3.375 C6.00104544 4.28601298 7.11621701 6.37615941 9 9 C5.23840019 8.47755558 2.67808998 7.7772785 0 5 C-0.25 2.3125 -0.25 2.3125 0 0 Z " fill="#BCE5D3" transform="translate(168,295)"/>
<path d="M0 0 C1.4540625 0.0309375 1.4540625 0.0309375 2.9375 0.0625 C1.9475 0.5575 1.9475 0.5575 0.9375 1.0625 C0.9375 1.7225 0.9375 2.3825 0.9375 3.0625 C-1.81328884 3.97942961 -3.42198913 4.17136083 -6.25 4.125 C-8.1371875 4.0940625 -8.1371875 4.0940625 -10.0625 4.0625 C-10.0625 3.7325 -10.0625 3.4025 -10.0625 3.0625 C-8.6084375 2.5984375 -8.6084375 2.5984375 -7.125 2.125 C-1.0625 0.02168367 -1.0625 0.02168367 0 0 Z " fill="#D0DDCB" transform="translate(223.0625,203.9375)"/>
<path d="M0 0 C0.268125 0.928125 0.53625 1.85625 0.8125 2.8125 C1.91148371 5.76240366 2.62418561 7.05615186 5 9 C4.67 9.66 4.34 10.32 4 11 C2.82174642 10.09827532 1.65768423 9.17798498 0.5 8.25 C-0.1496875 7.73953125 -0.799375 7.2290625 -1.46875 6.703125 C-3 5 -3 5 -3 1 C-1 0 -1 0 0 0 Z " fill="#D6CCBE" transform="translate(311,308)"/>
<path d="M0 0 C1.43861294 0.08746284 2.87597508 0.19565348 4.3125 0.3125 C5.11300781 0.37050781 5.91351563 0.42851562 6.73828125 0.48828125 C9.36272334 1.08206694 10.30820672 1.95780294 12 4 C10.37399059 3.9129995 8.74910322 3.8048219 7.125 3.6875 C6.22007812 3.62949219 5.31515625 3.57148438 4.3828125 3.51171875 C2 3 2 3 0 0 Z " fill="#B7E4D6" transform="translate(177,304)"/>
<path d="M0 0 C0.99 0 1.98 0 3 0 C3 0.66 3 1.32 3 2 C4.98 1.34 6.96 0.68 9 0 C8.67 1.32 8.34 2.64 8 4 C6.02 4 4.04 4 2 4 C1.34 2.68 0.68 1.36 0 0 Z " fill="#D1CCBF" transform="translate(285,288)"/>
<path d="M0 0 C4.13621084 3.3810038 7.81316569 6.66590534 11 11 C7.08149058 9.34216909 4.09708904 6.89061644 1 4 C0.32421875 1.8359375 0.32421875 1.8359375 0 0 Z " fill="#E6C6B4" transform="translate(417,224)"/>
<path d="M0 0 C-1.44626119 3.81287042 -3.30194812 5.32707177 -7 7 C-9.3125 6.6875 -9.3125 6.6875 -11 6 C-9.35 5.67 -7.7 5.34 -6 5 C-5.67 4.01 -5.34 3.02 -5 2 C-2 0 -2 0 0 0 Z " fill="#E0C2AF" transform="translate(427,199)"/>
<path d="M0 0 C3.91402949 1.26941497 5.79072873 2.51167694 8 6 C5.03 5.505 5.03 5.505 2 5 C2 4.34 2 3.68 2 3 C1.34 3 0.68 3 0 3 C0 2.01 0 1.02 0 0 Z " fill="#E5C4B3" transform="translate(352,161)"/>
<path d="M0 0 C1.32 0.33 2.64 0.66 4 1 C2.88200014 2.33920838 1.75538103 3.67122556 0.625 5 C-0.00148438 5.7425 -0.62796875 6.485 -1.2734375 7.25 C-2.12808594 8.11625 -2.12808594 8.11625 -3 9 C-3.66 9 -4.32 9 -5 9 C-3.80350464 5.59459014 -2.67025039 3.42750035 0 1 C0 0.67 0 0.34 0 0 Z " fill="#E5C6B6" transform="translate(422,272)"/>
<path d="M0 0 C3.3 0.99 6.6 1.98 10 3 C8 5 8 5 4.875 5.125 C3.92625 5.08375 2.9775 5.0425 2 5 C1.34 3.35 0.68 1.7 0 0 Z " fill="#ADD9DE" transform="translate(272,400)"/>
<path d="M0 0 C0.66 0.33 1.32 0.66 2 1 C-0.41556126 4.19199167 -2.68003538 6.74716687 -6 9 C-6.66 8.67 -7.32 8.34 -8 8 C-7.0479279 6.99403703 -6.08812654 5.99538437 -5.125 5 C-4.59132813 4.443125 -4.05765625 3.88625 -3.5078125 3.3125 C-2 2 -2 2 0 2 C0 1.34 0 0.68 0 0 Z " fill="#EDC4C0" transform="translate(280,222)"/>
<path d="M0 0 C0.66 0.33 1.32 0.66 2 1 C-0.65654657 4.73884332 -2.58110387 6.64978174 -7 8 C-7.33 7.34 -7.66 6.68 -8 6 C-7.05125 5.7525 -6.1025 5.505 -5.125 5.25 C-1.91306809 4.3142923 -1.91306809 4.3142923 -0.625 1.875 C-0.41875 1.25625 -0.2125 0.6375 0 0 Z " fill="#EDC5C2" transform="translate(314,188)"/>
<path d="M0 0 C3.33557632 2.9905167 5.15083921 5.93184627 7 10 C2.33845958 8.50164772 1.13389249 5.11536409 -1 1 C-0.67 0.67 -0.34 0.34 0 0 Z " fill="#E6D2EB" transform="translate(159,159)"/>
<path d="M0 0 C0.66666667 1.33333333 1.33333333 2.66666667 2 4 C2.8353125 5.546875 2.8353125 5.546875 3.6875 7.125 C4.120625 8.07375 4.55375 9.0225 5 10 C4.67 10.66 4.34 11.32 4 12 C0.81076967 7.81413519 -0.50423019 5.29441695 0 0 Z " fill="#E8CCF1" transform="translate(168,92)"/>
<path d="M0 0 C2.27521866 2.16687491 4.15794162 4.45620509 6 7 C3 7 3 7 1.61328125 5.6875 C0.40885417 4.125 -0.79557292 2.5625 -2 1 C-1.34 0.67 -0.68 0.34 0 0 Z " fill="#B0D9DD" transform="translate(221,419)"/>
<path d="M0 0 C2.31 0.66 4.62 1.32 7 2 C7.33 1.34 7.66 0.68 8 0 C8.33 0.99 8.66 1.98 9 3 C7.02 3.99 7.02 3.99 5 5 C3.35 3.35 1.7 1.7 0 0 Z " fill="#B0D8DA" transform="translate(186,387)"/>
<path d="M0 0 C1.15941038 3.47823115 0.70820884 5.45895578 0 9 C-1.77706209 6.33440687 -2.87548273 3.9719385 -4 1 C-2.68 0.67 -1.36 0.34 0 0 Z " fill="#E6C6B3" transform="translate(333,274)"/>
<path d="M0 0 C2.3125 0.1875 2.3125 0.1875 5 1 C6.875 3.4375 6.875 3.4375 8 6 C7.67 6.66 7.34 7.32 7 8 C5.83035398 6.8572081 4.66435444 5.71068285 3.5 4.5625 C2.8503125 3.92441406 2.200625 3.28632813 1.53125 2.62890625 C0 1 0 1 0 0 Z " fill="#B1D7DA" transform="translate(226,427)"/>
<path d="M0 0 C2.3125 0.1875 2.3125 0.1875 5 1 C6.875 3.4375 6.875 3.4375 8 6 C7.67 6.66 7.34 7.32 7 8 C5.83035398 6.8572081 4.66435444 5.71068285 3.5 4.5625 C2.8503125 3.92441406 2.200625 3.28632813 1.53125 2.62890625 C0 1 0 1 0 0 Z " fill="#B0D6DB" transform="translate(178,379)"/>
<path d="M0 0 C2.62187494 1.04874998 3.79371361 1.64931313 5.25 4.125 C5.4975 4.74375 5.745 5.3625 6 6 C4.35 5.67 2.7 5.34 1 5 C0.67 3.35 0.34 1.7 0 0 Z " fill="#B3D9E0" transform="translate(283,404)"/>
<path d="M0 0 C2.9375 1.25 2.9375 1.25 6 3 C6.875 5.1875 6.875 5.1875 7 7 C3.535 5.02 3.535 5.02 0 3 C0 2.01 0 1.02 0 0 Z " fill="#D1CCC2" transform="translate(278,281)"/>
<path d="M0 0 C1 2 1 2 0.0625 5.125 C-0.288125 6.07375 -0.63875 7.0225 -1 8 C-2.32 7.67 -3.64 7.34 -5 7 C-4.34 6.01 -3.68 5.02 -3 4 C-2.34 4 -1.68 4 -1 4 C-0.67 2.68 -0.34 1.36 0 0 Z " fill="#D9DBD8" transform="translate(231,196)"/>
</svg>
